<?xml version="1.0" encoding="UTF-8"?>
<svg version="1.1" xmlns="http://www.w3.org/2000/svg" width="931" height="901">
<path d="M0 0 C307.23 0 614.46 0 931 0 C931 297.33 931 594.66 931 901 C623.77 901 316.54 901 0 901 C0 603.67 0 306.34 0 0 Z " fill="#FCFCFC" transform="translate(0,0)"/>
<path d="M0 0 C183.48 0 366.96 0 556 0 C549.25000178 7.87499793 549.25000178 7.87499793 545.85740662 11.2628479 C545.09069641 12.03093277 544.32398621 12.79901764 543.53404236 13.59037781 C542.71255203 14.40827286 541.89106171 15.22616791 541.04467773 16.06884766 C540.16425812 16.9494133 539.2838385 17.82997894 538.3767395 18.73722839 C535.97987522 21.1335185 533.58082446 23.52757819 531.18074679 25.92064714 C528.66019878 28.43490253 526.14252189 30.95202975 523.62452698 33.46884155 C518.85861666 38.23165234 514.09016614 42.99191135 509.32077891 47.75124013 C503.90829966 53.1525496 498.4986502 58.5566894 493.08924568 63.96107793 C483.83850383 73.2031468 474.58565956 82.44310533 465.33042908 91.68067932 C463.84930876 93.15899759 462.36838324 94.63751106 460.88770866 96.11627579 C459.73864063 97.26291844 458.58853941 98.40852854 457.43658638 99.5522728 C453.50479135 103.46058026 449.87105246 107.61111438 446.20703125 111.76953125 C445.47871094 112.50558594 444.75039063 113.24164063 444 114 C443.34 114 442.68 114 442 114 C442 114.66 442 115.32 442 116 C440.71484375 117.2265625 440.71484375 117.2265625 438.9375 118.625 C436.29175167 120.79404453 434.07314817 123.00644013 431.90877342 125.65117359 C427.57991468 130.65991668 422.61833461 134.75249552 417.52212524 138.95622253 C415.91754209 140.2943667 414.31522183 141.63519177 412.71284442 142.97597605 C411.57264677 143.92971396 410.43184771 144.88273327 409.2904857 145.83507744 C372.90011285 176.19987589 337.59985747 207.76862211 302.91181481 240.05903995 C301.38938862 241.4760429 299.86632698 242.89236343 298.3426255 244.30799496 C196.75616708 337.15798191 196.75616708 337.15798191 155.94345093 472.58091736 C155.44159062 489.23051075 156.34538461 505.78014857 157.625 522.375 C157.72765305 523.74482216 157.83017187 525.11465439 157.93255711 526.48449659 C160.54973495 561.06664699 165.461777 595.14017008 173 629 C171.68 629.33 170.36 629.66 169 630 C168.63463135 629.56389404 168.2692627 629.12778809 167.89282227 628.6784668 C162.7295 622.63984873 157.17259022 617.01988754 151.54760742 611.41723633 C149.93356352 609.80857665 148.32496697 608.19460752 146.71679688 606.58007812 C145.6747998 605.53874156 144.63249272 604.49771509 143.58984375 603.45703125 C142.66034912 602.52866455 141.73085449 601.60029785 140.77319336 600.64379883 C138.76935963 598.73346205 136.80137164 597.00700553 134.65063477 595.28393555 C133.77592529 594.53023682 132.90121582 593.77653809 132 593 C132 592.34 132 591.68 132 591 C131.43152344 590.75894531 130.86304688 590.51789062 130.27734375 590.26953125 C127.55211092 588.75031912 125.73309661 586.92581019 123.5625 584.6875 C122.82128906 583.92824219 122.08007812 583.16898438 121.31640625 582.38671875 C120.55199219 581.59910156 119.78757812 580.81148437 119 580 C117.33416738 578.3324997 115.66731954 576.66601354 114 575 C112.87244052 573.86787366 111.74526949 572.73536035 110.6184082 571.60253906 C107.24398149 568.21036809 103.86654993 564.82120653 100.48803711 561.43310547 C99.03142184 559.97142286 97.57569973 558.50884968 96.12084961 557.04541016 C94.01649238 554.92897661 91.90896877 552.81574232 89.80078125 550.703125 C88.82266228 549.7172641 88.82266228 549.7172641 87.82478333 548.71148682 C87.22042953 548.1070575 86.61607574 547.50262817 85.9934082 546.87988281 C85.46221878 546.34647278 84.93102936 545.81306274 84.38374329 545.26348877 C83.00412026 543.88837221 83.00412026 543.88837221 81 543 C80.90074219 543.81855469 80.80148438 544.63710938 80.69921875 545.48046875 C79.86617811 549.6735951 78.41969854 553.3649873 76.8125 557.3125 C74.38684726 563.39628919 72.07644593 569.49705482 69.9375 575.6875 C68.08221784 581.03395736 66.12692658 586.31801405 64 591.5625 C59.69076672 602.18969769 55.70915445 612.92084412 51.9375 623.75 C50.28108087 628.50535424 48.55433638 633.18440958 46.5625 637.8125 C44.28291756 643.12663912 42.38068741 648.53573173 40.5 654 C38.27451833 660.46128732 35.91787188 666.7989723 33.22265625 673.08203125 C31.59269262 676.97207225 30.12404816 680.91604011 28.65869141 684.87060547 C26.89254136 689.63157977 25.0938473 694.37906996 23.27734375 699.12109375 C22.53631569 701.05935547 21.79552159 702.99770649 21.05474854 704.93606567 C20.56600153 706.21279213 20.07608186 707.4890704 19.5848999 708.76486206 C17.02287502 715.4219016 14.60286691 722.04840522 12.62866211 728.90380859 C11.80657012 731.6449666 10.75910605 734.24904975 9.625 736.875 C8.26678684 740.0386929 6.91989194 743.19946678 5.63671875 746.39453125 C5.19972656 747.48121094 4.76273438 748.56789063 4.3125 749.6875 C3.71888672 751.17830078 3.71888672 751.17830078 3.11328125 752.69921875 C2 755 2 755 0 756 C0 506.52 0 257.04 0 0 Z " fill="#020202" transform="translate(32,27)"/>
<path d="M0 0 C0 167.31 0 334.62 0 507 C-196.68 507 -393.36 507 -596 507 C-593.09286931 505.06191287 -590.86762034 504.21897846 -587.5625 503.1875 C-582.26734704 501.47360991 -577.1814896 499.4711793 -572.08203125 497.24609375 C-568.11117404 495.64063944 -564.07240982 494.32257354 -560 493 C-544.89874409 488.06312648 -529.89324071 482.96006526 -515.02197266 477.36303711 C-509.68923467 475.35621134 -504.35514427 473.41335544 -498.93896484 471.64355469 C-495.38007882 470.46233792 -491.88701633 469.10232672 -488.3828125 467.76953125 C-486 467 -486 467 -483 467 C-488.96713256 459.8709769 -495.51940169 453.35166107 -502.1015625 446.80078125 C-503.26807302 445.63614075 -504.43435929 444.47127561 -505.60043335 443.30619812 C-508.65073767 440.25968428 -511.70403099 437.21618384 -514.75799561 434.17333984 C-517.86131267 431.08026944 -520.96179097 427.98435637 -524.0625 424.88867188 C-529.51733535 419.44336689 -534.97462778 414.00053532 -540.43374634 408.55952454 C-542.19803635 406.79986077 -543.96089194 405.038758 -545.72254944 403.27645874 C-547.58137047 401.41844722 -549.45071086 399.57340916 -551.33203125 397.73828125 C-552.49224929 396.59641694 -553.65240471 395.45448901 -554.8125 394.3125 C-555.40998047 393.73177734 -556.00746094 393.15105469 -556.62304688 392.55273438 C-558.12014673 391.07274424 -559.56488731 389.54017218 -561 388 C-561 387.34 -561 386.68 -561 386 C-560.05891986 386.01236033 -559.11783972 386.02472067 -558.148242 386.03745556 C-535.17582949 386.33477377 -512.20451725 386.52112039 -489.23026562 386.59327984 C-478.11942978 386.63070713 -467.01096154 386.70326571 -455.90112305 386.8605957 C-446.20961474 386.99774888 -436.52032417 387.06688244 -426.82781106 387.05671436 C-421.70157267 387.05364986 -416.58045434 387.08301643 -411.45531273 387.194067 C-386.90884187 388.61872716 -386.90884187 388.61872716 -365.66831684 378.44827747 C-362.715418 375.26287398 -360.10719137 371.98411668 -357.66179371 368.39601612 C-353.50648601 362.40478858 -348.32515087 357.17342944 -343.13671875 352.07421875 C-342.61866165 351.55994827 -342.10060455 351.0456778 -341.56684875 350.51582336 C-339.94286784 348.90386682 -338.31562482 347.29527023 -336.6875 345.6875 C-334.52183822 343.54847691 -332.35955569 341.40611803 -330.19921875 339.26171875 C-329.70653 338.77732834 -329.21384125 338.29293793 -328.70622253 337.79386902 C-326.51084625 335.61433493 -324.72532842 333.58799263 -323 331 C-322.34 331 -321.68 331 -321 331 C-320.78625732 330.45956055 -320.57251465 329.91912109 -320.35229492 329.36230469 C-318.51252094 326.14842979 -315.99260168 323.76647363 -313.36328125 321.203125 C-312.52678291 320.37442902 -312.52678291 320.37442902 -311.67338562 319.5289917 C-309.89112195 317.76449486 -308.10233665 316.00681205 -306.3125 314.25 C-303.97184639 311.94614409 -301.63442405 309.63908229 -299.30078125 307.328125 C-298.45420708 306.48993477 -298.45420708 306.48993477 -297.5905304 305.6348114 C-294.13428032 302.19118555 -290.86596132 298.65064962 -287.70629883 294.93115234 C-284.07449618 290.82075615 -280.09416726 287.03411088 -276.1875 283.1875 C-274.49117754 281.51666699 -272.79706127 279.8435903 -271.10546875 278.16796875 C-269.99401489 277.07391724 -269.99401489 277.07391724 -268.86010742 275.95776367 C-266.83574963 273.93885085 -266.83574963 273.93885085 -265 271 C-264.34 271 -263.68 271 -263 271 C-262.77256104 270.44586426 -262.54512207 269.89172852 -262.31079102 269.32080078 C-260.61932567 266.32600295 -258.48217638 264.27633764 -256.02734375 261.8671875 C-255.54423233 261.38927765 -255.06112091 260.9113678 -254.56336975 260.41897583 C-253.02610959 258.89946386 -251.48230674 257.3868361 -249.9375 255.875 C-248.39002523 254.35515441 -246.84404074 252.83386581 -245.30091858 251.30960083 C-243.90429199 249.93081258 -242.50291677 248.55683935 -241.10131836 247.18310547 C-238.96740455 245.18319548 -238.96740455 245.18319548 -238 243 C-237.34 243 -236.68 243 -236 243 C-235.79294434 242.46624756 -235.58588867 241.93249512 -235.37255859 241.38256836 C-233.44690146 238.03989885 -230.77714361 235.5520725 -228.0390625 232.87890625 C-227.45208588 232.2971312 -226.86510925 231.71535614 -226.26034546 231.11595154 C-224.38659432 229.25997589 -222.50629831 227.41082263 -220.625 225.5625 C-218.75169934 223.71691802 -216.87991345 221.86986365 -215.01107788 220.01976013 C-213.84966776 218.87049541 -212.68559483 217.72391335 -211.51846313 216.58045959 C-209.07649718 214.16837035 -206.85858703 211.81944458 -204.73583984 209.10913086 C-203.87659912 208.06511108 -203.87659912 208.06511108 -203 207 C-202.34 207 -201.68 207 -201 207 C-201 206.34 -201 205.68 -201 205 C-200.34 205 -199.68 205 -199 205 C-198.76587402 204.43917725 -198.53174805 203.87835449 -198.29052734 203.30053711 C-196.68189755 200.43293996 -194.70015769 198.49313716 -192.3515625 196.19140625 C-190.96710938 194.82338867 -190.96710938 194.82338867 -189.5546875 193.42773438 C-188.57848329 192.47229004 -187.60191759 191.51721491 -186.625 190.5625 C-184.71799832 188.69214692 -182.81537683 186.81756391 -180.9140625 184.94140625 C-180.0679541 184.11326416 -179.2218457 183.28512207 -178.35009766 182.43188477 C-175.9338446 180.01882067 -175.9338446 180.01882067 -173.81787109 177.19116211 C-173.21797363 176.46807861 -172.61807617 175.74499512 -172 175 C-171.34 175 -170.68 175 -170 175 C-170 174.34 -170 173.68 -170 173 C-169.34 173 -168.68 173 -168 173 C-167.76442383 172.43772705 -167.52884766 171.8754541 -167.28613281 171.29614258 C-165.69526199 168.45594893 -163.74762535 166.54034989 -161.421875 164.26171875 C-160.05095703 162.90723633 -160.05095703 162.90723633 -158.65234375 161.52539062 C-157.68526418 160.57905052 -156.71781368 159.63308933 -155.75 158.6875 C-148.3421108 151.50336254 -148.3421108 151.50336254 -141.453125 143.83203125 C-140.64359375 142.89746094 -139.8340625 141.96289062 -139 141 C-138.34 141 -137.68 141 -137 141 C-136.79060791 140.46391113 -136.58121582 139.92782227 -136.36547852 139.37548828 C-134.4699875 136.07795072 -131.85236115 133.62675572 -129.15234375 130.9921875 C-128.58044815 130.42549347 -128.00855255 129.85879944 -127.41932678 129.27493286 C-125.59674775 127.47012728 -123.76760926 125.67216682 -121.9375 123.875 C-120.10471379 122.06982685 -118.27340471 120.26321611 -116.44496155 118.4536438 C-115.30807969 117.32902464 -114.16853542 116.20708937 -113.02610779 115.08810425 C-110.15256386 112.31969812 -110.15256386 112.31969812 -108 109 C-107.34 109 -106.68 109 -106 109 C-106 108.34 -106 107.68 -106 107 C-105.34 107 -104.68 107 -104 107 C-103.78537109 106.45867432 -103.57074219 105.91734863 -103.34960938 105.35961914 C-101.52131662 102.16308342 -99.02108829 99.79455789 -96.40625 97.24609375 C-95.85892212 96.70396744 -95.31159424 96.16184113 -94.74768066 95.60328674 C-93.00315061 93.87652343 -91.25207116 92.15660855 -89.5 90.4375 C-87.74881187 88.71396727 -85.99911801 86.98898317 -84.25231934 85.26100159 C-83.16661754 84.18751563 -82.07825321 83.11671423 -80.98693848 82.04893494 C-78.69678681 79.78906553 -76.79281392 77.68922088 -75 75 C-74.34 75 -73.68 75 -73 75 C-72.77272217 74.44602539 -72.54544434 73.89205078 -72.3112793 73.32128906 C-70.61737876 70.32266566 -68.47777093 68.27205539 -66.01953125 65.859375 C-65.52845383 65.37349915 -65.0373764 64.88762329 -64.53141785 64.38702393 C-62.96314352 62.83649697 -61.38836518 61.29280844 -59.8125 59.75 C-57.75305438 57.72743902 -55.69688383 55.7016334 -53.64453125 53.671875 C-53.14309601 53.17602905 -52.64166077 52.68018311 -52.12503052 52.16931152 C-49.47898416 49.53408509 -46.93483451 46.85667131 -44.51171875 44.015625 C-39.20064274 37.78879098 -33.21760523 32.16363222 -27.39746094 26.41796875 C-21.89021675 20.97488007 -16.44084321 15.5385096 -11.40869141 9.64453125 C-9.58292122 7.51309486 -7.6617199 5.49400166 -5.6875 3.5 C-4.70330078 2.49453125 -4.70330078 2.49453125 -3.69921875 1.46875 C-2 0 -2 0 0 0 Z " fill="#010101" transform="translate(854,329)"/>
<path d="M0 0 C9.57 0 19.14 0 29 0 C29 277.2 29 554.4 29 840 C-251.83 840 -532.66 840 -822 840 C-822 836.04 -822 832.08 -822 828 C-550.74 828 -279.48 828 0 828 C0 554.76 0 281.52 0 0 Z " fill="#030303" transform="translate(887,42)"/>
<path d="M0 0 C14.52 0 29.04 0 44 0 C44 297.33 44 594.66 44 901 C-263.23 901 -570.46 901 -887 901 C-887 890.44 -887 879.88 -887 869 C-594.29 869 -301.58 869 0 869 C0 869.33 0 869.66 0 870 C-271.26 870 -542.52 870 -822 870 C-822 873.96 -822 877.92 -822 882 C-541.17 882 -260.34 882 29 882 C29 604.8 29 327.6 29 42 C19.43 42 9.86 42 0 42 C0 28.14 0 14.28 0 0 Z " fill="#737372" transform="translate(887,0)"/>
<path d="M0 0 C1.47100198 -0.02098993 2.94255229 -0.01426676 4.41343307 0.01396656 C5.22539414 0.00969444 6.03735521 0.00542231 6.87392116 0.00102073 C9.59832366 -0.00722404 12.32119117 0.02029925 15.04545212 0.04761219 C16.99675587 0.04902234 18.94806227 0.04823132 20.89936447 0.04539967 C26.20084303 0.04396283 31.50175799 0.07339611 36.80310535 0.10826945 C42.34176477 0.13948831 47.88043656 0.14246017 53.41917038 0.14839649 C63.90937154 0.16394806 74.39931271 0.20499443 84.88939929 0.25514394 C96.83118702 0.31099644 108.77298705 0.33851363 120.71487284 0.36362112 C145.2819159 0.41590902 169.84872805 0.50387695 194.41556931 0.61523914 C189.54276763 6.48405331 184.29647406 11.87750249 178.89988327 17.26463795 C177.93896768 18.22742451 176.97826771 19.19042632 176.01776338 20.15362316 C173.39225648 22.78521811 170.76366351 25.41371101 168.13452005 28.04167211 C165.29433506 30.88165237 162.45701804 33.72449558 159.61930466 36.56694508 C154.06701384 42.12752435 148.51196419 47.68533949 142.95580694 53.24205517 C138.44247771 57.75586 133.92994002 62.27045463 129.41795731 66.78560543 C116.62751803 79.58484295 103.83499268 92.38199022 91.0397782 105.17645406 C90.35071309 105.86547921 89.66164799 106.55450436 88.95170212 107.26440907 C88.26179712 107.95427318 87.57189212 108.6441373 86.86108091 109.35490639 C75.65870543 120.55687466 64.46133721 131.76383347 53.26620719 142.97304236 C41.77302973 154.48055971 30.27615229 165.9843689 18.77536988 177.48428589 C12.31757767 183.94174552 5.8613478 190.4007499 -0.59090805 196.86374187 C-6.07878736 202.36069435 -11.57007389 207.854214 -17.06589869 213.34322309 C-19.87169826 216.14574252 -22.67582719 218.94988339 -25.47567368 221.75835133 C-28.03472626 224.32520327 -30.59828297 226.88746231 -33.16562697 229.44602049 C-34.54112912 230.81923485 -35.91167261 232.19741049 -37.28207803 233.57571119 C-38.49472254 234.78145751 -38.49472254 234.78145751 -39.73186493 236.01156235 C-40.43261399 236.71252877 -41.13336304 237.4134952 -41.85534692 238.13570303 C-43.58443069 239.61523914 -43.58443069 239.61523914 -45.58443069 239.61523914 C-46.47873713 214.71978638 -47.14532717 189.82679111 -47.55329323 164.91842175 C-47.74791598 153.34746892 -48.01324861 141.78667717 -48.45112991 130.22217274 C-51.5808712 45.96567761 -51.5808712 45.96567761 -34.59610558 26.1150732 C-27.24036896 18.43252155 -18.81119265 12.09153519 -9.49209404 6.98370266 C-7.37563595 5.63534049 -7.37563595 5.63534049 -5.84025383 2.99887848 C-3.58443069 0.61523914 -3.58443069 0.61523914 0 0 Z " fill="#010101" transform="translate(636.5844306945801,26.384760856628418)"/>
<path d="M0 0 C3.47510381 31.70363942 3.47510381 31.70363942 -4.20703125 41.49609375 C-8.3165515 45.79976456 -12.83555337 49.48772393 -17.58251953 53.06396484 C-20.53194914 55.42601057 -22.83774408 58.05258234 -25.24584961 60.94848633 C-29.2919577 65.68048998 -33.8916982 69.92707239 -38.328125 74.2890625 C-42.4765127 78.39511971 -46.42299977 82.57810169 -50.2265625 87.00390625 C-54.15714065 91.42797108 -58.463371 95.49980444 -62.68359375 99.64453125 C-66.07140926 102.99558926 -69.36938211 106.36208736 -72.4765625 109.9765625 C-76.37837947 114.51267599 -80.60968683 118.68322671 -84.875 122.875 C-86.39550816 124.37008161 -87.91385411 125.86736644 -89.4296875 127.3671875 C-90.09210449 128.01800293 -90.75452148 128.66881836 -91.43701172 129.33935547 C-93.08544452 130.93142515 -93.08544452 130.93142515 -94 133 C-94.66 133 -95.32 133 -96 133 C-96.22292725 133.54962402 -96.44585449 134.09924805 -96.67553711 134.66552734 C-98.39798532 137.70148123 -100.71142994 139.93975819 -103.19140625 142.3515625 C-103.94936745 143.10172134 -103.94936745 143.10172134 -104.72264099 143.86703491 C-106.33123084 145.45786943 -107.94636819 147.04183084 -109.5625 148.625 C-111.18130238 150.21617776 -112.79861821 151.80879701 -114.41307068 153.40438843 C-115.41640427 154.39547098 -116.42239908 155.38386808 -117.43128967 156.36929321 C-120.05171465 158.92858681 -120.05171465 158.92858681 -122 162 C-122.66 162 -123.32 162 -124 162 C-124.22727783 162.55397461 -124.45455566 163.10794922 -124.6887207 163.67871094 C-126.38262124 166.67733434 -128.52222907 168.72794461 -130.98046875 171.140625 C-131.47154617 171.62650085 -131.9626236 172.11237671 -132.46858215 172.61297607 C-134.03685648 174.16350303 -135.61163482 175.70719156 -137.1875 177.25 C-139.24694562 179.27256098 -141.30311617 181.2983666 -143.35546875 183.328125 C-143.85690399 183.82397095 -144.35833923 184.31981689 -144.87496948 184.83068848 C-147.52101584 187.46591491 -150.06516549 190.14332869 -152.48828125 192.984375 C-157.79935726 199.21120902 -163.78239477 204.83636778 -169.60253906 210.58203125 C-176.75709529 217.59609193 -176.75709529 217.59609193 -183.5 225 C-188.80803468 231.22055396 -194.78716672 236.84107866 -200.60253906 242.58203125 C-207.74256639 249.57954703 -207.74256639 249.57954703 -214.46875 256.96875 C-219.95978152 263.40376031 -226.16094652 269.2140623 -232.17529297 275.15478516 C-237.68573833 280.60380578 -243.13164877 286.03680032 -248.16210938 291.93945312 C-252.8552129 297.20111542 -258.01214679 302.05890384 -263.02978516 307.00927734 C-269.9344862 313.78314684 -269.9344862 313.78314684 -276.4375 320.9375 C-281.94233329 327.38073225 -288.15010301 333.20335153 -294.17529297 339.15478516 C-299.68573833 344.60380578 -305.13164877 350.03680032 -310.16210938 355.93945312 C-314.8552129 361.20111542 -320.01214679 366.05890384 -325.02978516 371.00927734 C-331.90537966 377.75010444 -331.90537966 377.75010444 -338.375 384.875 C-344.2483481 391.7495671 -350.89612098 397.9479748 -357.32080078 404.30029297 C-365.32616931 412.15129243 -365.32616931 412.15129243 -372.90625 420.40625 C-373.63019483 421.24482163 -373.63019483 421.24482163 -374.36876482 422.10033411 C-375.42996874 423.33616626 -376.47465698 424.58644049 -377.49947602 425.85260826 C-380.52678848 429.29440442 -382.75431262 431.40886869 -387.4220953 431.8613348 C-389.11367233 431.89050765 -390.80618271 431.88157026 -392.49754333 431.84178162 C-393.43457425 431.84776259 -394.37160516 431.85374356 -395.33703095 431.85990578 C-398.46710514 431.8714078 -401.59453441 431.83298782 -404.72436523 431.79467773 C-406.97167397 431.79270262 -409.21898722 431.79381272 -411.46629333 431.79777527 C-417.56112207 431.79978334 -423.65498607 431.75863413 -429.74959064 431.70975757 C-436.12102029 431.66599259 -442.49247216 431.66188595 -448.86402893 431.65357971 C-459.55627086 431.63429624 -470.24813187 431.59057606 -480.94018555 431.52807617 C-491.9509098 431.46378061 -502.96153792 431.4142526 -513.97241211 431.38452148 C-514.65160804 431.38268242 -515.33080396 431.38084336 -516.03058159 431.37894856 C-519.43805479 431.36981301 -522.84552867 431.36096713 -526.253003 431.35226524 C-554.50224796 431.27974883 -582.75110196 431.15597955 -611 431 C-608.17387606 434.5800024 -605.26348922 437.81052124 -602 441 C-600.76051861 442.23672353 -599.52255958 443.47497373 -598.28569031 444.71430969 C-597.24043938 445.75956062 -597.24043938 445.75956062 -596.17407227 446.82592773 C-570.78271484 472.21728516 -545.39135742 497.60864258 -520 523 C-521 525 -521 525 -523.0390625 525.74609375 C-523.89242187 525.97425781 -524.74578125 526.20242188 -525.625 526.4375 C-529.26109417 527.41644843 -532.60234219 528.6799746 -536.04882812 530.19458008 C-539.76591143 531.72894667 -543.61225954 532.89228974 -547.4375 534.125 C-555.13934379 536.64735215 -562.741191 539.36048515 -570.3125 542.25 C-579.93949411 545.91390433 -589.63117739 549.35026557 -599.375 552.6875 C-600.4071463 553.04118149 -600.4071463 553.04118149 -601.46014404 553.40200806 C-610.15071462 556.37623375 -618.86203352 559.28295373 -627.59082031 562.14306641 C-631.02837325 563.2852646 -634.34621725 564.52310847 -637.625 566.0625 C-639.07997966 566.71585366 -640.53902796 567.36015823 -642 568 C-642.90733887 568.41975098 -643.81467773 568.83950195 -644.74951172 569.27197266 C-658.97445198 574.78578224 -674.22879737 573.56895917 -689.23016357 573.34332275 C-693.04522795 573.29151691 -696.86046406 573.26919992 -700.67578125 573.24414062 C-708.11764897 573.19104631 -715.55867854 573.10608877 -723 573 C-720.10904141 569.86660173 -717.42876794 568.87775119 -713.375 567.5 C-712.20710937 567.0978125 -711.03921875 566.695625 -709.8359375 566.28125 C-707.88762457 565.6261592 -705.93706333 564.97949588 -703.98266602 564.34277344 C-697.31626854 562.15836428 -690.75691659 559.70857066 -684.1875 557.25 C-675.03356284 553.83823095 -665.86432021 550.49207097 -656.61987305 547.33300781 C-651.94461043 545.7250016 -647.36045912 543.95732033 -642.77807617 542.10205078 C-637.28689207 539.92372184 -631.73170727 537.91362286 -626.1875 535.875 C-623.80577013 534.99799158 -621.42425129 534.12040981 -619.04296875 533.2421875 C-618.00164795 532.8591748 -616.96032715 532.47616211 -615.88745117 532.08154297 C-614.0244597 531.38372846 -612.1695102 530.663862 -610.32543945 529.91748047 C-608 529 -608 529 -604.75 528.078125 C-600.41532185 526.83190503 -596.22487339 525.32251746 -592 523.75 C-590.75367798 523.28920044 -590.75367798 523.28920044 -589.48217773 522.8190918 C-584.30923578 520.89491002 -579.17511115 518.89109178 -574.0625 516.8125 C-568.71748438 514.64808444 -563.35127124 512.71275718 -557.86328125 510.9453125 C-553.95777136 509.65590814 -550.11923766 508.20117738 -546.27734375 506.734375 C-544 506 -544 506 -541 506 C-546.44975871 499.47564098 -552.39285785 493.50215069 -558.44189453 487.54223633 C-559.69881969 486.29811282 -560.9500495 485.04823685 -562.19946289 483.79656982 C-565.24363183 480.7567133 -568.30376597 477.73356751 -571.36669922 474.71264648 C-577.62355586 468.53725999 -583.86785148 462.34933196 -590.10500908 456.15405178 C-593.87469092 452.41057621 -597.64895457 448.67196138 -601.43359375 444.94360352 C-605.10066467 441.33070292 -608.75552374 437.70586051 -612.40210342 434.07228279 C-613.79407809 432.68956208 -615.19045332 431.31125717 -616.59121323 429.93743706 C-618.54241646 428.02233109 -620.47760655 426.09234709 -622.40966797 424.15795898 C-622.99450455 423.59109879 -623.57934113 423.02423859 -624.18190002 422.44020081 C-625.76217651 420.83909607 -625.76217651 420.83909607 -628 418 C-627.78685207 415.5430834 -627.24799046 414.30155944 -625.68177515 412.39702237 C-622.77140002 409.97942263 -619.07201212 410.6102065 -615.45491028 410.65510559 C-614.57186067 410.65410329 -613.68881106 410.65310099 -612.77900237 410.65206832 C-609.8079518 410.6521491 -606.83742567 410.67353933 -603.86645508 410.69458008 C-601.74109108 410.69865894 -599.61572394 410.70131038 -597.49035645 410.70263672 C-592.90678317 410.70786125 -588.32334765 410.72185159 -583.73981667 410.742136 C-576.49127871 410.77275941 -569.24290084 410.775465 -561.99430847 410.77262878 C-541.37980635 410.76830595 -520.76549862 410.791728 -500.15112305 410.8659668 C-488.77093986 410.90671201 -477.39109222 410.91893652 -466.01084822 410.89972991 C-458.80629351 410.88916461 -451.60298478 410.91375218 -444.39861166 410.96410239 C-439.91192354 410.98700573 -435.42577703 410.97644165 -430.93909454 410.95638275 C-428.86061113 410.95375704 -426.78205791 410.96480585 -424.70373344 410.99064445 C-413.95809613 411.48645072 -413.95809613 411.48645072 -404.02327538 408.24303246 C-402.00572884 406.26018801 -400.50247767 404.38490245 -399 402 C-398.27167969 401.17628906 -397.54335938 400.35257813 -396.79296875 399.50390625 C-395.70841514 398.19241442 -394.62511254 396.87988719 -393.54296875 395.56640625 C-392 394 -392 394 -389 393 C-389 392.34 -389 391.68 -389 391 C-387.38025441 389.28769752 -385.7041054 387.62836738 -384 386 C-383.175 385.175 -382.35 384.35 -381.5 383.5 C-379 381 -376.5 378.5 -374 376 C-373.30325165 375.30292435 -372.6065033 374.60584869 -371.88864136 373.88764954 C-368.02246265 370.02150969 -364.15163633 366.16002351 -360.28173828 362.29760742 C-351.43509118 353.46734471 -342.5910073 344.63451968 -333.74839973 335.80021191 C-328.40214715 330.459114 -323.0549561 325.11896193 -317.70556641 319.78100586 C-313.02456392 315.11000288 -308.34535072 310.43721595 -303.66823375 305.76232225 C-301.19841677 303.2938019 -298.72774588 300.82615084 -296.25491714 298.3606472 C-293.49286737 295.60671502 -290.73481367 292.84880151 -287.97705078 290.09057617 C-287.16850647 289.28562714 -286.35996216 288.4806781 -285.5269165 287.65133667 C-281.39899797 283.51594845 -277.45515555 279.294037 -273.64214897 274.86743641 C-271.0614589 271.93269986 -268.30853381 269.18494627 -265.53320312 266.43554688 C-264.92895004 265.83275406 -264.32469696 265.22996124 -263.70213318 264.60890198 C-262.40471291 263.31525354 -261.10614004 262.02276018 -259.8065033 260.7313385 C-257.74328687 258.68102427 -255.68333188 256.62748134 -253.62414551 254.57312012 C-248.51202551 249.47428534 -243.39444891 244.38093867 -238.27703857 239.28741455 C-233.94206054 234.97224783 -229.60919158 230.65498374 -225.27903748 226.3349762 C-223.26104282 224.32340813 -221.24003341 222.31490405 -219.21887207 220.30651855 C-217.96803063 219.05931354 -216.71733156 217.81196571 -215.46679688 216.56445312 C-214.91386459 216.01668716 -214.36093231 215.4689212 -213.79124451 214.90455627 C-210.93294513 212.04663737 -208.20628454 209.12225662 -205.56332397 206.06332397 C-202.04914671 202.00516078 -198.32968305 198.2020177 -194.52001953 194.42236328 C-193.80859299 193.712397 -193.09716644 193.00243073 -192.36418152 192.27095032 C-190.8342922 190.74483883 -189.30324975 189.21988258 -187.7711525 187.6959877 C-185.34835866 185.28604137 -182.92877637 182.87291115 -180.50997925 180.45895386 C-175.38446302 175.34481317 -170.25500813 170.23463431 -165.125 165.125 C-159.15805941 159.18165128 -153.1927393 153.23669471 -147.23159409 147.28753281 C-144.84434107 144.90677568 -142.45410499 142.52904098 -140.06375122 140.15139771 C-138.61022532 138.70150192 -137.15683828 137.25146691 -135.70361328 135.80126953 C-135.03560196 135.13842453 -134.36759064 134.47557953 -133.67933655 133.79264832 C-133.07384476 133.18722702 -132.46835297 132.58180573 -131.84451294 131.95803833 C-131.31619936 131.43194536 -130.78788578 130.90585239 -130.2435627 130.36381721 C-128.88646475 128.99974982 -128.88646475 128.99974982 -128 127 C-127.34 127 -126.68 127 -126 127 C-125.79709351 126.47144913 -125.59418701 125.94289825 -125.38513184 125.39833069 C-123.40199577 121.96456651 -120.64096318 119.38867558 -117.83789062 116.62670898 C-117.20682907 115.99696167 -116.57576752 115.36721436 -115.92558289 114.71838379 C-113.8403642 112.63965159 -111.7482657 110.56798338 -109.65625 108.49609375 C-108.20607624 107.05219096 -106.75641681 105.60777144 -105.30725098 104.16285706 C-101.49162714 100.36053621 -97.670478 96.56382083 -93.84771729 92.76867676 C-87.72750708 86.69158568 -81.61399374 80.60777599 -75.50370789 74.52070808 C-73.3666965 72.39393037 -71.22630986 70.27059294 -69.08557129 68.14756775 C-67.77763574 66.8464595 -66.46980917 65.54524169 -65.16210938 64.24389648 C-64.56464401 63.65316849 -63.96717865 63.06244049 -63.35160828 62.45381165 C-60.95449339 60.0633415 -58.88435768 57.82653651 -57 55 C-56.34 55 -55.68 55 -55 55 C-54.77058716 54.44592468 -54.54117432 53.89184937 -54.30480957 53.32098389 C-52.63217484 50.34571581 -50.53565537 48.28115303 -48.12304688 45.86425781 C-47.62853531 45.36624161 -47.13402374 44.8682254 -46.62452698 44.3551178 C-44.99425197 42.71606438 -43.35679915 41.08440634 -41.71875 39.453125 C-40.58267419 38.31570185 -39.4468954 37.17798196 -38.31140137 36.03997803 C-35.93398445 33.65961549 -33.55299452 31.28290118 -31.16943359 28.90869141 C-28.109145 25.85982294 -25.05795651 22.8020296 -22.00936127 19.74147415 C-19.66760239 17.39250369 -17.32112004 15.04829858 -14.97315979 12.70552826 C-13.84571857 11.57942414 -12.71976922 10.45182439 -11.59532166 9.32273102 C-10.02730903 7.74966188 -8.45306824 6.18310914 -6.87695312 4.61816406 C-5.98141724 3.72421936 -5.08588135 2.83027466 -4.16320801 1.90924072 C-2 0 -2 0 0 0 Z " fill="#030303" transform="translate(854,263)"/>
<path d="M0 0 C0.33 0 0.66 0 1 0 C1 190.08 1 380.16 1 576 C-238.91 576 -478.82 576 -726 576 C-725.67 575.34 -725.34 574.68 -725 574 C-724.21391357 574.01776489 -723.42782715 574.03552979 -722.61791992 574.05383301 C-715.09087152 574.21630876 -707.56471065 574.33700257 -700.03634644 574.41449738 C-696.16879553 574.45568306 -692.30273069 574.51121634 -688.43603516 574.60351562 C-668.74197613 575.06100065 -652.41575105 573.87878256 -634 566 C-628.48323433 563.74304825 -622.9780175 561.57622461 -617.3046875 559.73828125 C-616.10634277 559.34616455 -614.90799805 558.95404785 -613.67333984 558.55004883 C-612.4198877 558.14165771 -611.16643555 557.7332666 -609.875 557.3125 C-599.29891802 553.83838668 -588.83589223 550.15333061 -578.43066406 546.19140625 C-565.10527128 541.11936376 -551.63267625 536.48048927 -538.08447266 532.0402832 C-529.19036445 529.27499114 -529.19036445 529.27499114 -521 525 C-521.43291351 524.56893007 -521.86582703 524.13786015 -522.31185913 523.69372749 C-532.83252723 513.21717774 -543.34769492 502.73513204 -553.85671997 492.24690437 C-558.9388841 487.17506435 -564.02291169 482.10511868 -569.11132812 477.03955078 C-573.54502938 472.62574877 -577.97523485 468.20847333 -582.40123177 463.78694522 C-584.74611077 461.4446795 -587.09324599 459.10474912 -589.44354248 456.76791763 C-592.06334704 454.16253305 -594.67692523 451.55105669 -597.2890625 448.93798828 C-598.46725555 447.77058105 -598.46725555 447.77058105 -599.66925049 446.57958984 C-600.7294339 445.51528244 -600.7294339 445.51528244 -601.81103516 444.42947388 C-602.43048004 443.81187258 -603.04992493 443.19427128 -603.68814087 442.55795479 C-605 441 -605 441 -605 439 C-605.61875 438.7525 -606.2375 438.505 -606.875 438.25 C-609.37480203 436.77952822 -609.83316022 435.58596924 -611 433 C-609.83601055 433.00590778 -608.6720211 433.01181557 -607.47275925 433.01790237 C-579.8069024 433.15563115 -552.14144044 433.23113615 -524.47522633 433.23060168 C-521.06584087 433.23058988 -517.65645567 433.23110028 -514.24707031 433.23193359 C-513.56835787 433.2320907 -512.88964543 433.23224781 -512.19036594 433.23240969 C-501.21805821 433.23619328 -490.24631735 433.2822256 -479.27420053 433.34402815 C-468.0055337 433.40655474 -456.7374455 433.42242297 -445.46857572 433.39809489 C-439.1429129 433.38590428 -432.81886095 433.39462054 -426.49343109 433.4539566 C-420.5337021 433.50919395 -414.57661765 433.50774621 -408.61682129 433.46369362 C-406.43519352 433.45739967 -404.2533927 433.47143542 -402.07205963 433.50784111 C-388.69411775 433.97950395 -388.69411775 433.97950395 -377.3754456 427.80170226 C-375.03857394 425.32507032 -373.02099316 422.74387621 -371 420 C-369.83916082 418.65187641 -368.67031875 417.31046784 -367.484375 415.984375 C-366.95263672 415.36111328 -366.42089844 414.73785156 -365.87304688 414.09570312 C-361.56029855 409.2702819 -356.85523688 404.79469856 -352.25 400.25 C-350.18976882 398.21648376 -348.13297125 396.17958086 -346.078125 394.140625 C-344.72315918 392.80306152 -344.72315918 392.80306152 -343.34082031 391.43847656 C-341.00032239 389.10982314 -341.00032239 389.10982314 -339.30761719 386.67871094 C-338.87610352 386.12473633 -338.44458984 385.57076172 -338 385 C-337.34 385 -336.68 385 -336 385 C-335.79076904 384.46407227 -335.58153809 383.92814453 -335.3659668 383.37597656 C-333.46826355 380.0750922 -330.84724143 377.62192879 -328.14453125 374.984375 C-327.56466965 374.40971497 -326.98480804 373.83505493 -326.38737488 373.24298096 C-324.5337814 371.40715981 -322.6736614 369.57814585 -320.8125 367.75 C-318.37810818 365.35238147 -315.94693018 362.95157322 -313.51953125 360.546875 C-312.93168854 359.96462158 -312.34384583 359.38236816 -311.7381897 358.7824707 C-308.28052578 355.33696059 -305.01321847 351.80180394 -301.85424805 348.07910156 C-296.79855837 342.41033879 -291.22732212 337.18169475 -285.82470703 331.84521484 C-280.31426167 326.39619422 -274.86835123 320.96319968 -269.83789062 315.06054688 C-265.1447871 309.79888458 -259.98785321 304.94109616 -254.97021484 299.99072266 C-248.0655138 293.21685316 -248.0655138 293.21685316 -241.5625 286.0625 C-236.05766671 279.61926775 -229.84989699 273.79664847 -223.82470703 267.84521484 C-218.32452251 262.40634068 -212.89017389 256.9833878 -207.86914062 251.09179688 C-202.98219569 245.62270803 -197.61559068 240.5693217 -192.39746094 235.41796875 C-187.02059835 230.10374282 -181.72519312 224.79326403 -176.81494141 219.03759766 C-172.37066088 214.04809466 -167.49488636 209.44807584 -162.73852539 204.7590332 C-161.3379919 203.37654966 -159.9404363 201.99105139 -158.54296875 200.60546875 C-157.71821045 199.79231201 -156.89345215 198.97915527 -156.04370117 198.14135742 C-153.85877021 195.97577525 -153.85877021 195.97577525 -152 193 C-151.34 193 -150.68 193 -150 193 C-149.77707275 192.45037598 -149.55414551 191.90075195 -149.32446289 191.33447266 C-147.60201468 188.29851877 -145.28857006 186.06024181 -142.80859375 183.6484375 C-142.05063255 182.89827866 -142.05063255 182.89827866 -141.27735901 182.13296509 C-139.66876916 180.54213057 -138.05363181 178.95816916 -136.4375 177.375 C-134.81869762 175.78382224 -133.20138179 174.19120299 -131.58692932 172.59561157 C-130.58359573 171.60452902 -129.57760092 170.61613192 -128.56871033 169.63070679 C-125.94828535 167.07141319 -125.94828535 167.07141319 -124 164 C-123.34 164 -122.68 164 -122 164 C-121.77707275 163.45037598 -121.55414551 162.90075195 -121.32446289 162.33447266 C-119.60201468 159.29851877 -117.28857006 157.06024181 -114.80859375 154.6484375 C-114.05063255 153.89827866 -114.05063255 153.89827866 -113.27735901 153.13296509 C-111.66876916 151.54213057 -110.05363181 149.95816916 -108.4375 148.375 C-106.81869762 146.78382224 -105.20138179 145.19120299 -103.58692932 143.59561157 C-102.58359573 142.60452902 -101.57760092 141.61613192 -100.56871033 140.63070679 C-97.94828535 138.07141319 -97.94828535 138.07141319 -96 135 C-95.34 135 -94.68 135 -94 135 C-93.76369873 134.43700195 -93.52739746 133.87400391 -93.28393555 133.29394531 C-91.70192894 130.4674509 -89.77135991 128.56395401 -87.45703125 126.296875 C-86.54759766 125.39839844 -85.63816406 124.49992187 -84.70117188 123.57421875 C-83.73865469 122.63243069 -82.77576181 121.69102645 -81.8125 120.75 C-76.25052271 115.29166204 -70.7753007 109.85907164 -65.7097168 103.93457031 C-61.81094678 99.5230533 -57.51473709 95.47869528 -53.31640625 91.35546875 C-49.9311829 88.00697477 -46.63554742 84.64339331 -43.53125 81.03125 C-38.88053801 75.62579389 -33.75310504 70.706912 -28.671875 65.7109375 C-25.09329162 62.16887027 -21.6363819 58.62702748 -18.40234375 54.765625 C-16.19615274 52.17549945 -14.10983948 50.26536405 -11.25390625 48.421875 C-6.23279205 44.95489941 -1.82131971 41.341049 -0.62902832 35.03924561 C0.44018296 25.51613355 -0.11384913 15.78315779 -0.75601196 6.24424744 C-0.87139876 4.49808229 -0.94054781 2.74896319 -1 1 C-0.67 0.67 -0.34 0.34 0 0 Z M-3.40112305 69.15820312 C-3.93261963 69.69380859 -4.46411621 70.22941406 -5.01171875 70.78125 C-5.60533203 71.37679687 -6.19894531 71.97234375 -6.81054688 72.5859375 C-7.73963867 73.53339844 -7.73963867 73.53339844 -8.6875 74.5 C-9.28755859 75.10070312 -9.88761719 75.70140625 -10.50585938 76.3203125 C-13.57227069 79.41636689 -16.5239588 82.56919974 -19.36328125 85.875 C-24.25549653 91.53194541 -29.64581519 96.69090499 -34.97265625 101.93359375 C-38.54318321 105.46973361 -42.05719949 108.99314213 -45.31640625 112.8203125 C-48.35969411 116.36742078 -51.61305335 119.67559314 -54.93359375 122.9609375 C-55.724207 123.74328766 -55.724207 123.74328766 -56.53079224 124.54144287 C-58.72688579 126.70978608 -60.92669206 128.874283 -63.13061523 131.03466797 C-64.75674919 132.63078899 -66.37675895 134.23292323 -67.99609375 135.8359375 C-68.75061073 136.57026505 -68.75061073 136.57026505 -69.52037048 137.31942749 C-70.71861993 138.50883537 -71.86483363 139.75024396 -73 141 C-73 141.66 -73 142.32 -73 143 C-74.485 143.495 -74.485 143.495 -76 144 C-77.5123234 145.49422714 -77.5123234 145.49422714 -79.00390625 147.3828125 C-84.09952267 153.39137677 -89.78292976 158.81464862 -95.41235352 164.31640625 C-96.82994803 165.70399001 -98.24125905 167.09798418 -99.65234375 168.4921875 C-100.48757568 169.31058105 -101.32280762 170.12897461 -102.18334961 170.97216797 C-104.22241956 172.7945157 -104.22241956 172.7945157 -104 175 C-104.66 175 -105.32 175 -106 175 C-106 175.66 -106 176.32 -106 177 C-106.66 177 -107.32 177 -108 177 C-109.4172628 178.40409876 -109.4172628 178.40409876 -110.91015625 180.2890625 C-113.95128595 183.86714043 -117.15284051 187.22933218 -120.49609375 190.5234375 C-121.21933334 191.2381723 -121.21933334 191.2381723 -121.95718384 191.96734619 C-123.96237243 193.94550532 -125.97174998 195.91931589 -127.98510742 197.88916016 C-129.47224382 199.34628443 -130.95325005 200.80941757 -132.43359375 202.2734375 C-133.31072021 203.13372559 -134.18784668 203.99401367 -135.09155273 204.88037109 C-137.22303868 206.77235402 -137.22303868 206.77235402 -137 209 C-137.55042969 209.21269531 -138.10085938 209.42539062 -138.66796875 209.64453125 C-141.80521695 211.46802392 -143.94007799 213.99601989 -146.3125 216.6875 C-151.74820323 222.73916896 -157.43292325 228.4891747 -163.2746582 234.14916992 C-164.19831177 235.05566284 -164.19831177 235.05566284 -165.140625 235.98046875 C-165.69266602 236.51567139 -166.24470703 237.05087402 -166.81347656 237.60229492 C-168.21572171 238.94854714 -168.21572171 238.94854714 -168 241 C-168.66 241 -169.32 241 -170 241 C-170 241.66 -170 242.32 -170 243 C-170.58265625 243.24492187 -171.1653125 243.48984375 -171.765625 243.7421875 C-174.38593775 245.21725866 -175.80568186 246.8307046 -177.75 249.125 C-182.80667286 254.92105192 -188.25084885 260.28298842 -193.76660156 265.64111328 C-194.44303711 266.3061084 -195.11947266 266.97110352 -195.81640625 267.65625 C-196.42943604 268.25244141 -197.04246582 268.84863281 -197.67407227 269.46289062 C-199.21772504 270.91407349 -199.21772504 270.91407349 -199 273 C-199.66 273 -200.32 273 -201 273 C-201 273.66 -201 274.32 -201 275 C-201.57693604 275.23912109 -202.15387207 275.47824219 -202.74829102 275.72460938 C-205.4629601 277.26222526 -207.00107427 279.03491615 -209.02734375 281.40625 C-212.45676053 285.31433717 -215.98875321 289.07022999 -219.69140625 292.71875 C-220.17217621 293.1938501 -220.65294617 293.6689502 -221.14828491 294.15844727 C-223.12635223 296.10957151 -225.10877336 298.05617627 -227.0949707 299.99902344 C-228.56890943 301.44297815 -230.03673637 302.89292297 -231.50390625 304.34375 C-232.36830322 305.19130859 -233.2327002 306.03886719 -234.12329102 306.91210938 C-236.22283125 308.78001099 -236.22283125 308.78001099 -236 311 C-236.66 311 -237.32 311 -238 311 C-239.48544794 312.47122416 -239.48544794 312.47122416 -241.03515625 314.4140625 C-245.98450373 320.23727714 -251.47360524 325.48733948 -256.94335938 330.81640625 C-257.72388672 331.58597656 -258.50441406 332.35554688 -259.30859375 333.1484375 C-260.01814209 333.84114746 -260.72769043 334.53385742 -261.45874023 335.24755859 C-263.22013776 336.86133732 -263.22013776 336.86133732 -263 339 C-263.99 339.33 -264.98 339.66 -266 340 C-267.5613843 341.54024928 -267.5613843 341.54024928 -269.09375 343.46875 C-274.04297221 349.30176189 -279.52459787 354.57160264 -284.97265625 359.93359375 C-288.56399596 363.49034592 -292.09598501 367.03740003 -295.37890625 370.8828125 C-298.26903747 374.25140886 -301.34103819 377.40479475 -304.49609375 380.5234375 C-304.97885773 381.00069275 -305.4616217 381.477948 -305.95901489 381.96966553 C-307.96385478 383.94678415 -309.97244955 385.92000033 -311.98510742 387.88916016 C-313.47224382 389.34628443 -314.95325005 390.80941757 -316.43359375 392.2734375 C-317.31072021 393.13372559 -318.18784668 393.99401367 -319.09155273 394.88037109 C-321.22303868 396.77235402 -321.22303868 396.77235402 -321 399 C-321.99 399.33 -322.98 399.66 -324 400 C-325.47625203 401.45626572 -325.47625203 401.45626572 -326.9375 403.3125 C-330.03088922 406.95828016 -333.29496657 410.38420091 -336.6875 413.75 C-337.19748535 414.25668213 -337.7074707 414.76336426 -338.23291016 415.28540039 C-340.35303149 417.38740947 -342.47790449 419.48458578 -344.60253906 421.58203125 C-351.72805559 428.56298814 -351.72805559 428.56298814 -358.4375 435.9375 C-358.94327985 436.50896413 -359.4490597 437.08042826 -359.97016621 437.66920948 C-361.07173909 438.93410893 -362.16483452 440.20766905 -363.20762861 441.52144754 C-368.22992047 447.7958415 -373.02457811 453.44181052 -381.35067236 454.47023261 C-385.42678323 454.70512851 -389.47012276 454.66056273 -393.55004883 454.56762695 C-395.38448262 454.57383485 -397.21890449 454.58576647 -399.05326843 454.60293579 C-403.99586897 454.63319459 -408.9347761 454.58415014 -413.87693238 454.52005029 C-419.05525181 454.46663959 -424.23328491 454.48727154 -429.41178894 454.49980164 C-439.20095371 454.51236434 -448.98858853 454.4590511 -458.77741021 454.38163012 C-469.92865734 454.29667367 -481.0795997 454.28582116 -492.23112452 454.28096449 C-515.15468354 454.26933258 -538.07707071 454.16538358 -561 454 C-559.21118173 457.87156898 -556.72662354 460.503313 -553.6875 463.4375 C-553.21376953 463.90220703 -552.74003906 464.36691406 -552.25195312 464.84570312 C-550.83733614 466.23322758 -549.41868488 467.61663507 -548 469 C-546.3321019 470.66543432 -544.66561541 472.33228273 -543 474 C-541.01153995 475.98476805 -539.02177613 477.96822844 -537.03222656 479.9519043 C-531.20707412 485.7607721 -525.38442401 491.57214133 -519.56322098 497.38496685 C-516.04622809 500.89671792 -512.52829622 504.40751809 -509.00830078 507.91625977 C-505.5963297 511.31739579 -502.18678064 514.72094228 -498.77892303 518.12619972 C-497.47998576 519.4232866 -496.18016738 520.71949172 -494.8794632 522.01480675 C-493.06738919 523.8196604 -491.25842953 525.62757986 -489.45019531 527.4362793 C-488.90995224 527.97292709 -488.36970917 528.50957489 -487.81309509 529.06248474 C-484.11405509 532.77188981 -484.11405509 532.77188981 -483 535 C-483.825 535.103125 -484.65 535.20625 -485.5 535.3125 C-488.81849683 535.96434759 -491.65104995 536.91595963 -494.77807617 538.15185547 C-496.83762055 538.93801712 -498.90246578 539.63945205 -501 540.31640625 C-505.6705409 541.8610171 -510.26666235 543.57717522 -514.86938477 545.31201172 C-527.42915546 550.04537538 -540.06198769 554.44339121 -552.82299805 558.59985352 C-558.83979736 560.56832519 -564.75252837 562.63775361 -570.60766602 565.04443359 C-575.70064007 567.07871265 -580.92178562 568.7735839 -586.11523438 570.53125 C-586.96279297 570.82257813 -587.81035156 571.11390625 -588.68359375 571.4140625 C-589.44212646 571.6713916 -590.20065918 571.9287207 -590.98217773 572.19384766 C-593.25671131 573.02206063 -593.25671131 573.02206063 -596 575 C-399.32 575 -202.64 575 0 575 C0 407.69 0 240.38 0 68 C-2.04605569 67.78762405 -2.04605569 67.78762405 -3.40112305 69.15820312 Z " fill="#737372" transform="translate(854,261)"/>
<path d="M0 0 C56.43 0 112.86 0 171 0 C171 0.66 171 1.32 171 2 C169.671875 3.3046875 169.671875 3.3046875 167.75 4.875 C162.3262229 9.47699269 157.38800566 14.53030342 152.39550781 19.58813477 C149.69141835 22.32392017 146.97364285 25.04565844 144.2265625 27.73828125 C138.06991047 33.7898197 132.57411509 40.18045043 127.38624573 47.08409119 C110.21254081 69.80669849 89.32996491 97.15238138 59.65833092 102.01558876 C38.1991562 104.88829843 16.25827165 103.545962 -5.26586568 102.10552442 C-15.18548856 101.45383787 -25.10812116 101.15157367 -35.04399884 100.86844552 C-55.38654519 100.28143838 -75.69048377 99.28761603 -96 98 C-95.43756639 97.37075166 -95.43756639 97.37075166 -94.86377048 96.72879124 C-92.227163 93.72469321 -89.73954092 90.72830158 -87.53538513 87.3903656 C-79.73563438 75.62785178 -69.70005346 63.05304147 -55.62033844 59.03568268 C-37.1117486 55.48021846 -17.58678824 56.88775574 1.13250601 57.7671684 C8.76544611 58.11932874 16.3994324 58.28549614 24.0385226 58.43996823 C39.70338854 58.76070747 55.34571064 59.32693069 71 60 C71 49.44 71 38.88 71 28 C39.32 28 7.64 28 -25 28 C-23.20381529 24.40763057 -21.94326691 22.71499951 -19.15625 19.99609375 C-18.40472656 19.25552734 -17.65320313 18.51496094 -16.87890625 17.75195312 C-16.09386719 16.98818359 -15.30882812 16.22441406 -14.5 15.4375 C-12.94568662 13.91764184 -11.39350712 12.39559753 -9.84375 10.87109375 C-9.15474609 10.20005615 -8.46574219 9.52901855 -7.75585938 8.83764648 C-5.81983589 6.9179867 -5.81983589 6.9179867 -4 4 C-3.34 4 -2.68 4 -2 4 C-2 3.34 -2 2.68 -2 2 C-1.34 2 -0.68 2 0 2 C0 1.34 0 0.68 0 0 Z " fill="#040504" transform="translate(359,544)"/>
<path d="M0 0 C4.60715902 0.17168148 9.21508575 0.18486212 13.8249495 0.21668601 C22.50902662 0.29980085 31.18365383 0.52013765 39.86361271 0.79312223 C49.76354827 1.09754673 59.66399663 1.24400082 69.56746542 1.37889898 C89.89693847 1.65926578 110.21797141 2.13247092 130.54020524 2.73763633 C128.60235633 6.96943462 125.68938535 9.84798546 122.40983415 13.07918906 C121.78198518 13.70572379 121.15413621 14.33225852 120.50726151 14.97777915 C118.43165482 17.04689755 116.34916705 19.10895002 114.26676774 21.17123008 C112.82138462 22.61034098 111.37651666 24.04996945 109.9321425 25.49009299 C106.12714766 29.28178235 102.31663131 33.06786987 98.50449967 36.85238242 C92.40869046 42.90508979 86.31953082 48.96446761 80.23366761 55.02717376 C78.10895173 57.14168861 75.98084184 59.25274283 73.85236955 61.36347556 C72.5445847 62.66442933 71.23691076 63.9654946 69.9293654 65.26668906 C69.04395318 66.14199523 69.04395318 66.14199523 68.14065385 67.03498435 C65.04337251 70.12372307 62.23368431 73.28108984 59.54020524 76.73763633 C58.32253445 77.86582664 57.07384713 78.96161992 55.79411149 80.01888633 C51.36436715 83.8096562 47.42669036 87.95541968 43.47770524 92.23763633 C42.13374834 93.68656961 40.7887058 95.13449669 39.44254899 96.58138633 C38.56844377 97.52788047 38.56844377 97.52788047 37.67667985 98.4934957 C36.97164323 99.23406211 36.26660661 99.97462852 35.54020524 100.73763633 C35.15417886 101.30605026 34.76815248 101.8744642 34.37042832 102.4601028 C31.67611501 105.93083151 29.59413586 107.53552517 25.21890187 108.37455916 C20.90512743 108.60124518 16.64056103 108.60434074 12.32365251 108.53231406 C10.66746948 108.530338 9.01128033 108.53145089 7.35510087 108.5354116 C2.8716465 108.53741609 -1.61049096 108.49632776 -6.09363985 108.44739389 C-10.78341795 108.40356764 -15.47322788 108.39951751 -20.16317916 108.39121604 C-29.03847792 108.36947878 -37.91317148 108.31206225 -46.78820401 108.24176961 C-56.8944971 108.16346648 -67.00081943 108.12502466 -77.10734046 108.08990157 C-97.89182938 108.01677789 -118.67577391 107.89369164 -139.45979476 107.73763633 C-139.45979476 107.07763633 -139.45979476 106.41763633 -139.45979476 105.73763633 C-138.06794906 104.36703086 -138.06794906 104.36703086 -136.09651351 102.74544883 C-130.87627998 98.30577873 -126.0920222 93.47908745 -121.27229476 88.61263633 C-119.95841781 87.2919918 -119.95841781 87.2919918 -118.61799788 85.94466758 C-116.94721451 84.26501727 -115.27800836 82.58379601 -113.61067367 80.90072227 C-111.90959179 79.18998612 -110.19523477 77.49569348 -108.47151351 75.80794883 C-106.30789713 73.70698046 -106.30789713 73.70698046 -104.45979476 70.73763633 C-101.69930243 70.36849284 -101.69930243 70.36849284 -98.10710311 70.37687278 C-97.44794233 70.3743095 -96.78878155 70.37174623 -96.1096462 70.36910528 C-93.89066794 70.36414557 -91.67236316 70.38069531 -89.4534471 70.39706016 C-87.86696554 70.39790596 -86.28048279 70.3974322 -84.69400191 70.39573264 C-80.37804014 70.39486944 -76.06232686 70.41254758 -71.74642301 70.43345451 C-67.23940411 70.45216732 -62.73237996 70.45396748 -58.22532821 70.45753074 C-49.68654996 70.46686711 -41.1478865 70.49150237 -32.60915887 70.52157921 C-22.88984563 70.55507375 -13.170527 70.57159676 -3.45117044 70.58666551 C16.54603315 70.61805061 36.54307932 70.67308248 56.54020524 70.73763633 C56.54020524 60.17763633 56.54020524 49.61763633 56.54020524 38.73763633 C14.30020524 38.73763633 -27.93979476 38.73763633 -71.45979476 38.73763633 C-71.45979476 38.07763633 -71.45979476 37.41763633 -71.45979476 36.73763633 C-70.11591983 35.49527049 -70.11591983 35.49527049 -68.18179488 33.9734304 C-64.92593436 31.22676865 -62.21149249 28.320339 -59.55167562 24.99289924 C-41.90664431 2.94375588 -27.62015883 -1.20776839 0 0 Z " fill="#030404" transform="translate(672.4597947597504,264.26236367225647)"/>
<path d="M0 0 C1.13248956 24.59017999 1.97292552 49.17634939 2.48698425 73.78754425 C2.73229641 85.22268146 3.06618932 96.64128549 3.62109375 108.06591797 C7.59925928 191.55473517 7.59925928 191.55473517 -14.05152893 215.52993011 C-23.53708523 225.56338837 -34.51087225 234.11975517 -46.07766724 241.6135025 C-48.12559806 242.86468271 -48.12559806 242.86468271 -49 245 C-49.66 245 -50.32 245 -51 245 C-52.15629752 220.29692137 -53.01412242 195.59800607 -53.53879642 170.87311649 C-53.78918027 159.38497902 -54.12993641 147.91400148 -54.6965332 136.43676758 C-58.75688113 52.59277987 -58.75688113 52.59277987 -36.69717693 28.05835247 C-10.3012832 0 -10.3012832 0 0 0 Z " fill="#020303" transform="translate(288,376)"/>
<path d="M0 0 C0.84682457 24.93035979 1.47855677 49.85852165 1.86523819 74.80044174 C2.04969606 86.38656394 2.3012368 97.96359316 2.71582031 109.54394531 C5.68066275 193.9483692 5.68066275 193.9483692 -10.48573685 213.12456131 C-17.86496689 220.90682314 -26.37302239 227.28071537 -36 232 C-36.66 232 -37.32 232 -38 232 C-38.3745584 206.85209253 -38.65629431 181.7046059 -38.82899475 156.55446625 C-38.91133244 144.87536613 -39.02348261 133.19800378 -39.20703125 121.52001953 C-39.3670276 111.33561476 -39.4698514 101.15246886 -39.50541592 90.96684217 C-39.52619236 85.57793693 -39.57463694 80.19263131 -39.69168091 74.80488586 C-40.46916695 37.58814398 -40.46916695 37.58814398 -32.50804138 28.67810822 C-29.84172476 26.29022602 -27.07923886 24.31494118 -24.03895569 22.43348694 C-21.0525825 20.33391853 -18.88523501 17.70621438 -16.57565308 14.90233612 C-13.967533 11.75346972 -11.07485423 8.89072337 -8.1875 6 C-7.61580078 5.41605469 -7.04410156 4.83210937 -6.45507812 4.23046875 C-2.23947051 0 -2.23947051 0 0 0 Z " fill="#030303" transform="translate(427,236)"/>
<path d="M0 0 C0.66 0 1.32 0 2 0 C2.84678686 25.06076019 3.47853963 50.11933431 3.86523819 75.19159317 C4.04970325 86.83822299 4.30125709 98.47580864 4.71582031 110.11669922 C7.68111985 194.97391285 7.68111985 194.97391285 -8.52806473 214.15800095 C-15.92113167 221.9361274 -24.43233073 228.17481751 -34 233 C-34.33 233 -34.66 233 -35 233 C-35.79935583 207.9043558 -36.396222 182.81065468 -36.76161385 157.70478249 C-36.93590467 146.04296485 -37.17276263 134.38911582 -37.56494141 122.73242188 C-37.90720441 112.55438968 -38.1239269 102.38212809 -38.19900882 92.19850099 C-38.24282999 86.81785432 -38.34316622 81.45368823 -38.59482193 76.07841873 C-39.43776108 57.36725941 -40.15830585 40.41247334 -27.23968506 25.62957764 C-19.65402297 17.40401814 -11.21814725 10.07593788 -2.3886832 3.21895444 C-0.85764244 2.02960036 -0.85764244 2.02960036 0 0 Z " fill="#050505" transform="translate(557,103)"/>
<path d="M0 0 C0.79935583 25.0956442 1.396222 50.18934532 1.76161385 75.29521751 C1.93590467 86.95703515 2.17276263 98.61088418 2.56494141 110.26757812 C2.90720441 120.44561032 3.1239269 130.61787191 3.19900882 140.80149901 C3.24282999 146.18214568 3.34316622 151.54631177 3.59482193 156.92158127 C4.43945962 175.67026004 5.12095826 192.59123786 -7.76031494 207.44073486 C-15.71761593 216.11975618 -24.58187468 223.94204165 -34 231 C-34.33 231 -34.66 231 -35 231 C-35.32757511 205.68702218 -35.57417937 180.37436366 -35.72537041 155.05969048 C-35.7974493 143.30453356 -35.89564897 131.55069633 -36.05615234 119.79638672 C-36.19604159 109.54681459 -36.28609564 99.29819842 -36.31723893 89.04769814 C-36.33543504 83.62346814 -36.37794415 78.20197197 -36.48022079 72.77862167 C-36.57588324 67.66413614 -36.60444276 62.55348572 -36.58350754 57.43819046 C-36.58733183 55.57006661 -36.61482172 53.70180295 -36.66887665 51.8344574 C-37.07597768 37.03408651 -37.07597768 37.03408651 -31.91702652 30.85458755 C-29.00953576 27.79055743 -25.87541072 25.07022484 -22.60763001 22.40000749 C-20.42260453 20.49717412 -18.73270493 18.31285697 -17 16 C-15.35363154 14.31327938 -13.68548307 12.64763539 -12 11 C-11.04513379 10.03687942 -10.09205422 9.07198474 -9.140625 8.10546875 C-8.17709568 7.13280027 -7.21355395 6.16014408 -6.25 5.1875 C-5.75628906 4.68541016 -5.26257813 4.18332031 -4.75390625 3.66601562 C-1.11282951 0 -1.11282951 0 0 0 Z " fill="#030403" transform="translate(356,306)"/>
<path d="M0 0 C0 37.62 0 75.24 0 114 C-37.62 114 -75.24 114 -114 114 C-112.10501648 110.21003295 -110.54054706 108.28933116 -107.59692383 105.34295654 C-106.67150787 104.41190094 -105.74609192 103.48084534 -104.79263306 102.52157593 C-103.7641994 101.49703068 -102.73566197 100.47258958 -101.70703125 99.44824219 C-100.62583582 98.36433633 -99.54506624 97.28000553 -98.46469116 96.19528198 C-95.53142628 93.25289921 -92.59187 90.31687806 -89.65087509 87.38222408 C-86.57651266 84.31292212 -83.5070294 81.23874704 -80.43676758 78.16534424 C-75.28207697 73.00701523 -70.12318362 67.8529176 -64.96191406 62.70117188 C-58.9880446 56.73819824 -53.02142997 50.76803805 -47.05851078 44.79411578 C-41.94283558 39.66937788 -36.82328971 34.54853122 -31.70046139 29.43094373 C-28.63885485 26.37246102 -25.57862945 23.31262932 -22.5218811 20.24929047 C-19.65034417 17.37199507 -16.77399511 14.49960027 -13.89378738 11.63098526 C-12.83504096 10.57489299 -11.77801063 9.51707723 -10.72278976 8.45746231 C-9.28749327 7.01673909 -7.84547699 5.58271946 -6.40307617 4.14910889 C-5.59633957 3.34312634 -4.78960297 2.53714378 -3.9584198 1.70673752 C-2 0 -2 0 0 0 Z " fill="#040404" transform="translate(855,50)"/>
<path d="M0 0 C10.02980696 0.38522909 20.06053125 0.56826117 30.09593153 0.73790598 C50.68422923 1.09029766 71.25923154 1.68552691 91.83613324 2.44890857 C91.45322409 2.86840746 91.07031493 3.28790635 90.67580247 3.72011733 C87.51738075 7.27576979 84.96147345 10.78004549 82.63569951 14.91846156 C75.95918041 26.32587379 66.04528433 37.49336034 52.84420228 40.97412658 C28.52461971 46.03185937 1.9728092 43.56258912 -22.66627538 42.68174016 C-32.65769329 42.33088093 -42.64986379 42.16370526 -52.64593661 42.00894034 C-73.15876367 41.68738156 -93.66052621 41.14441106 -114.16386676 40.44890857 C-90.37256731 -7.79417318 -46.54423969 -1.8201879 0 0 Z " fill="#050505" transform="translate(576.1638667583466,402.5510914325714)"/>
<path d="M0 0 C4.68294772 0.19112521 9.36687289 0.20542849 14.05311823 0.24076223 C22.87620669 0.33301536 31.68777512 0.57766857 40.50584853 0.88124692 C50.56516649 1.21982944 60.62511839 1.38230037 70.68874002 1.53210998 C91.34227059 1.84340215 111.98552083 2.36896299 132.63023615 3.04181814 C130.86825009 6.84007807 128.67075834 9.13764102 125.63023615 12.04181814 C124.20482511 13.47531045 122.77943867 14.90882742 121.35470819 16.34299612 C119.16887527 18.54231422 116.98028414 20.73887952 114.7916131 22.93537283 C113.63967985 24.09236343 112.48864165 25.25024584 111.3384881 26.40900564 C109.66596984 28.09367295 107.99022467 29.77507186 106.3138299 31.45588064 C105.80331583 31.971556 105.29280176 32.48723135 104.76681757 33.01853323 C97.89352072 39.89290252 97.89352072 39.89290252 93.4987092 40.41096163 C91.63484379 40.40681356 91.63484379 40.40681356 89.73332453 40.40258169 C89.03978648 40.40514497 88.34624843 40.40770824 87.63169408 40.41034919 C85.30838025 40.41528962 82.98571665 40.39879055 80.66246271 40.38239431 C78.9968694 40.38154809 77.33127497 40.38202308 75.66568232 40.38372183 C71.14323828 40.38458341 66.62103241 40.36693131 62.09864378 40.34599996 C57.37275696 40.3272603 52.64686484 40.32548485 47.9209466 40.32192373 C38.97141215 40.31259529 30.0219875 40.28797069 21.07250142 40.25787526 C10.88398437 40.22435612 0.6954621 40.2078515 -9.49309635 40.19278896 C-30.45204682 40.16142185 -51.41089842 40.10864581 -72.36976385 40.04181814 C-72.36976385 38.04181814 -72.36976385 38.04181814 -70.22228956 35.85105467 C-69.76270739 35.40989388 -69.30312521 34.96873309 -68.82961631 34.51420379 C-67.33134378 33.00306822 -66.01129275 31.43011042 -64.68485594 29.76677656 C-45.34889261 5.58961364 -30.65822935 -1.46916576 0 0 Z " fill="#020303" transform="translate(465.36976385116577,471.95818185806274)"/>
<path d="M0 0 C1.62466013 0.00138269 1.62466013 0.00138269 3.28214169 0.00279331 C5.13952465 0.00073132 5.13952465 0.00073132 7.0344305 -0.00137234 C8.41924214 0.00216727 9.80405354 0.00580209 11.18886471 0.00952244 C12.63726964 0.0098043 14.08567471 0.00964659 15.53407955 0.00907993 C19.47812183 0.00879193 23.42213397 0.01468903 27.36616921 0.02165389 C31.48349338 0.02788705 35.60081817 0.0284912 39.71814632 0.0296793 C47.52025732 0.03279273 55.32235437 0.04100627 63.12445921 0.05102879 C72.00460173 0.06218957 80.88474491 0.06770029 89.7648927 0.07272422 C108.03700261 0.08318887 126.30909953 0.10078853 144.58119869 0.12304783 C146.41427168 9.12547293 146.48014284 16.77523845 141.46565914 24.76922703 C135.47886681 32.60818238 128.46827584 38.81815794 118.54697585 40.5557487 C108.825619 41.82038845 99.00735913 41.4678305 89.23501968 41.15092659 C84.66464842 41.02442126 80.09390747 41.01403987 75.52205563 40.99041843 C66.89645511 40.92867313 58.27602859 40.7651675 49.6526897 40.56342864 C39.82243587 40.33853296 29.9919119 40.22958669 20.15971899 40.12951994 C-0.03599043 39.92142483 -20.22706787 39.57050372 -40.41880131 39.12304783 C-40.41880131 38.46304783 -40.41880131 37.80304783 -40.41880131 37.12304783 C-39.75880131 37.12304783 -39.09880131 37.12304783 -38.41880131 37.12304783 C-38.09033207 36.30670872 -38.09033207 36.30670872 -37.75522709 35.47387791 C-35.97814692 32.34791792 -33.57522816 30.01332968 -31.03598881 27.50976658 C-30.50289097 26.97712696 -29.96979313 26.44448734 -29.42054081 25.89570713 C-28.29146613 24.76964862 -27.1599669 23.64601663 -26.02622318 22.52465916 C-24.3154426 20.83196039 -22.61262639 19.13157294 -20.91098881 17.42968845 C-15.2471403 11.78481553 -9.52144284 6.29758375 -3.41880131 1.12304783 C-2.41880131 0.12304783 -2.41880131 0.12304783 0 0 Z " fill="#060606" transform="translate(710.4188013076782,195.87695217132568)"/>
<path d="M0 0 C6.92758205 4.7602552 12.73139818 10.47024138 18.625 16.4296875 C19.62203637 17.43046258 20.61952157 18.43079069 21.61743164 19.43069458 C24.21930016 22.04013209 26.8151012 24.65552231 29.40960693 27.27227783 C32.06755012 29.95082602 34.73129533 32.62359106 37.39453125 35.296875 C42.60199072 40.52566528 47.80304227 45.76076954 53 51 C51.67172151 53.944554 50.22697877 56.02254064 47.94584656 58.3013916 C47.31926147 58.93217117 46.69267639 59.56295074 46.04710388 60.21284485 C45.36084427 60.89348495 44.67458466 61.57412506 43.9675293 62.27539062 C43.24375092 63.00106735 42.51997253 63.72674408 41.77426147 64.47441101 C39.37910678 66.87327183 36.97682352 69.26485271 34.57421875 71.65625 C32.90717222 73.32210429 31.24049533 74.98832856 29.57417297 76.65490723 C26.07930797 80.14820752 22.58110718 83.63812079 19.08032227 87.12548828 C14.59619521 91.5926454 10.11865888 96.06633683 5.6433897 100.54236603 C2.20100778 103.98447577 -1.24397658 107.42397078 -4.68984032 110.8625946 C-6.34142915 112.51100406 -7.99241549 114.16001741 -9.64278603 115.80964661 C-11.95247132 118.11715949 -14.26542297 120.42134671 -16.5793457 122.72460938 C-17.25953262 123.40524948 -17.93971954 124.08588959 -18.64051819 124.78715515 C-21.95853251 128.08288556 -25.3245794 131.09930911 -29 134 C-30.19838135 135.45749083 -31.39563088 136.91601239 -32.57714844 138.38720703 C-34.12902799 140.14625239 -35.78596514 141.60404377 -37.578125 143.1171875 C-42.41721827 147.30099263 -46.92699936 151.77983474 -51.4375 156.3125 C-52.65856445 157.52776367 -52.65856445 157.52776367 -53.90429688 158.76757812 C-54.67708984 159.54166016 -55.44988281 160.31574219 -56.24609375 161.11328125 C-56.94404053 161.81235596 -57.6419873 162.51143066 -58.36108398 163.23168945 C-60.07362678 164.91392168 -60.07362678 164.91392168 -61 167 C-61.66 167 -62.32 167 -63 167 C-61.95523979 163.60452931 -60.74251181 160.39286834 -59.234375 157.18359375 C-56.36755469 150.78792854 -54.22584656 144.13881467 -52 137.5 C-47.14528493 123.02031656 -47.14528493 123.02031656 -43.93798828 116.09667969 C-42.22645975 112.27091002 -40.85248441 108.31787791 -39.4375 104.375 C-37.44279854 98.8376026 -35.34334695 93.40236474 -33 88 C-29.70733588 79.59909061 -26.6751079 71.10380231 -23.66674805 62.59790039 C-19.31144903 50.29320753 -14.79599191 38.06312338 -10.125 25.875 C-9.84832489 25.15266174 -9.57164978 24.43032349 -9.28659058 23.68609619 C-6.25018037 15.76686357 -3.17615288 7.86444726 0 0 Z " fill="#040404" transform="translate(126,628)"/>
<path d="M0 0 C0.68100484 25.05236901 1.19052809 50.10332939 1.50255299 75.16312695 C1.65136751 86.80259375 1.85373984 98.43627385 2.18774414 110.07202148 C2.47914063 120.22838154 2.6644133 130.38055012 2.72856635 140.54097444 C2.76601681 145.91108135 2.85222187 151.26921325 3.06617165 156.63542747 C4.46241445 193.02516575 4.46241445 193.02516575 -8.49928385 207.41269594 C-14.74498232 213.90411064 -21.54873744 219.92604272 -29 225 C-29.66 225 -30.32 225 -31 225 C-31.25726164 199.78268977 -31.45108431 174.56557695 -31.56993389 149.34721756 C-31.62659144 137.63711867 -31.70379818 125.92783637 -31.82983398 114.21826172 C-31.93966859 104.00899819 -32.01048609 93.80032616 -32.03497344 83.5904882 C-32.04928237 78.18690218 -32.08277033 72.78500793 -32.16303062 67.38196564 C-32.23806413 62.28920925 -32.26065605 57.19883032 -32.24418449 52.10557365 C-32.24719465 50.243141 -32.26886391 48.38062351 -32.31126022 46.51867104 C-32.64662721 31.02139078 -32.64662721 31.02139078 -27.21876508 24.65705752 C-24.93499632 22.29092418 -22.49209849 20.14332595 -20 18 C-18.33844579 16.31093888 -16.68876602 14.60999355 -15.05859375 12.890625 C-13.5207918 11.34120238 -11.9804665 9.79427967 -10.4375 8.25 C-9.64537109 7.445625 -8.85324219 6.64125 -8.03710938 5.8125 C-7.28107422 5.05453125 -6.52503906 4.2965625 -5.74609375 3.515625 C-5.07247803 2.83790039 -4.3988623 2.16017578 -3.70483398 1.46191406 C-2 0 -2 0 0 0 Z " fill="#070807" transform="translate(490,173)"/>
<path d="M0 0 C1.52099609 1.44458008 1.52099609 1.44458008 3.1484375 3.45703125 C7.06530149 8.13030487 11.29079457 12.40306902 15.625 16.6875 C16.36234375 17.42033203 17.0996875 18.15316406 17.859375 18.90820312 C19.23270484 20.27291889 20.60707197 21.63659236 21.98291016 22.9987793 C23.46880725 24.47298633 24.95053706 25.95139658 26.42993164 27.43212891 C28.96981892 29.96984472 31.52423479 32.49206593 34.08203125 35.01171875 C35.50477487 36.420678 36.92750427 37.82965198 38.34936523 39.23950195 C39.33199785 40.21196884 40.31640133 41.18264932 41.30249023 42.15161133 C42.7336325 43.55862126 44.15795058 44.97256198 45.58203125 46.38671875 C46.85397339 47.64295044 46.85397339 47.64295044 48.15161133 48.92456055 C50 51 50 51 50 53 C49.27296875 53.23074219 48.5459375 53.46148438 47.796875 53.69921875 C42.66627289 55.36337559 37.63595099 57.10008389 32.6875 59.25 C26.90245448 61.71959515 21.00903211 63.77399686 15.0625 65.8125 C7.82405355 68.2965361 0.63436432 70.85614529 -6.5 73.625 C-18.68591519 78.34808085 -31.00830472 82.69585812 -43.3203125 87.07666016 C-50.63376209 89.68311597 -57.93015743 92.28884503 -65.11743164 95.23046875 C-67.43137777 96.17633287 -69.77010747 97.03681791 -72.125 97.875 C-75.91719636 99.23806918 -79.69375841 100.63598749 -83.46191406 102.06420898 C-91.43795705 105.08528804 -99.46337112 107.94348142 -107.52514648 110.7277832 C-108.33927002 111.00968506 -109.15339355 111.29158691 -109.9921875 111.58203125 C-110.71776855 111.83186768 -111.44334961 112.0817041 -112.19091797 112.33911133 C-114.06293693 112.9843226 -114.06293693 112.9843226 -116 114 C-114.66298783 110.94421389 -113.31903508 109.18789212 -110.7331543 107.10205078 C-104.21182551 101.57483089 -98.29708907 95.42001683 -92.26953125 89.3671875 C-90.94794862 88.04373561 -89.62614194 86.72050743 -88.30412292 85.39749146 C-84.84332578 81.93289923 -81.38554073 78.46531632 -77.92840576 74.99707031 C-74.41307111 71.47149397 -70.89489781 67.94875287 -67.37695312 64.42578125 C-61.69636232 58.73643165 -56.01747218 53.0453914 -50.34091187 47.35202026 C-49.35604868 46.36431142 -48.37083193 45.37695495 -47.38520241 44.39001083 C-46.02488218 43.02496855 -44.67024379 41.65427163 -43.3157196 40.28347778 C-40.67548143 37.67999971 -37.84782631 35.37318859 -35 33 C-33.32233259 31.34440717 -31.65677573 29.67649925 -30 28 C-20 18 -20 18 -17.40625 15.4375 C-15.34550655 13.34999365 -13.40484374 11.22830777 -11.5 9 C-3.65909091 0 -3.65909091 0 0 0 Z " fill="#020202" transform="translate(204,703)"/>
<path d="M0 0 C14.52 0 29.04 0 44 0 C44 10.56 44 21.12 44 32 C29.48 32 14.96 32 0 32 C0 21.44 0 10.88 0 0 Z " fill="#030403" transform="translate(0,869)"/>
<path d="M0 0 C14.52 0 29.04 0 44 0 C44 6.93 44 13.86 44 21 C29.48 21 14.96 21 0 21 C0 14.07 0 7.14 0 0 Z " fill="#010202" transform="translate(887,0)"/>
<path d="M0 0 C0.66 0 1.32 0 2 0 C2.33 64.68 2.66 129.36 3 196 C2.01 196 1.02 196 0 196 C0 131.32 0 66.64 0 0 Z " fill="#B5B5B5" transform="translate(387,274)"/>
<path d="M0 0 C1.52603781 3.05207562 1.16485387 6.2419873 1.17840576 9.59204102 C1.18546044 10.38454789 1.19251511 11.17705477 1.19978356 11.993577 C1.22226375 14.66367235 1.2375956 17.33376098 1.25292969 20.00390625 C1.26741283 21.91226492 1.28228924 23.82062063 1.29753113 25.72897339 C1.33748577 30.92301172 1.37079411 36.1170718 1.40211773 41.31116867 C1.42181432 44.55251437 1.44266533 47.79385064 1.46387482 51.03518677 C1.52985388 61.16606136 1.59182984 71.29694867 1.64805388 81.42788219 C1.71309756 93.14274271 1.79123315 104.85741914 1.88073611 116.57211781 C1.94904997 125.6149498 2.00588256 134.65780801 2.05390286 143.70077038 C2.08286825 149.10781732 2.11677424 154.51472846 2.16255951 159.92166138 C2.20527116 165.00392897 2.23380081 170.08607605 2.25121498 175.16849136 C2.26009789 177.03825198 2.27417234 178.90799588 2.29369926 180.77767563 C2.31948224 183.32126709 2.32691383 185.86425407 2.32952881 188.40795898 C2.34147616 189.15561303 2.35342351 189.90326708 2.36573291 190.67357731 C2.35631943 192.72972107 2.35631943 192.72972107 2 196 C0.515 196.99 0.515 196.99 -1 198 C-1.02332585 172.33166256 -1.04097763 146.6633267 -1.05181217 120.99498081 C-1.0569758 109.07762359 -1.06401976 97.16027293 -1.07543945 85.24291992 C-1.08538426 74.85980679 -1.09185294 64.47669842 -1.09408849 54.09358066 C-1.09539595 48.59215674 -1.09848398 43.09074643 -1.10573006 37.58932686 C-1.11248707 32.41761015 -1.11461762 27.24591275 -1.11310768 22.07419205 C-1.11338415 20.17018085 -1.11539116 18.26616904 -1.11920547 16.36216164 C-1.12413776 13.77446234 -1.12300002 11.18683715 -1.12025452 8.59913635 C-1.12316736 7.83553238 -1.1260802 7.07192841 -1.12908131 6.28518492 C-1.11412121 1.11412121 -1.11412121 1.11412121 0 0 Z " fill="#131313" transform="translate(523,138)"/>
<path d="M0 0 C1.1381346 0.02184631 1.1381346 0.02184631 2.29926181 0.04413396 C3.11122288 0.03986184 3.92318394 0.03558971 4.75974989 0.03118813 C7.48415239 0.02294336 10.2070199 0.05046665 12.93128085 0.07777959 C14.8825846 0.07918974 16.833891 0.07839872 18.7851932 0.07556707 C24.08667176 0.07413023 29.38758672 0.10356351 34.68893409 0.13843685 C40.2275935 0.16965571 45.76626529 0.17262757 51.30499911 0.17856389 C61.79520027 0.19411546 72.28514144 0.23516183 82.77522802 0.28531134 C94.71701575 0.34116384 106.65881578 0.36868103 118.60070157 0.39378852 C143.16774463 0.44607642 167.73455678 0.53404435 192.30139804 0.64540654 C189.82639804 3.61540654 189.82639804 3.61540654 187.30139804 6.64540654 C186.31139804 4.66540654 186.31139804 4.66540654 185.30139804 2.64540654 C161.38867787 1.6556187 137.47910087 0.91960187 113.54988933 0.46929532 C102.43264441 0.25443764 91.32837275 -0.03822126 80.21936679 -0.52305049 C67.39617599 -1.07214816 54.58220801 -1.42255281 41.74671054 -1.45615596 C40.19796284 -1.46021055 40.19796284 -1.46021055 38.61792731 -1.46434706 C13.86784582 -1.42599064 -7.00934129 -0.20346331 -25.3478024 17.85771734 C-33.1827725 25.98009757 -39.92101758 34.96313826 -45.69860196 44.64540654 C-46.35860196 44.31540654 -47.01860196 43.98540654 -47.69860196 43.64540654 C-47.23141751 43.18044271 -46.76423306 42.71547887 -46.28289151 42.23642522 C-41.41321217 37.38889961 -36.54708034 32.53783367 -31.68297696 27.68471318 C-29.86812662 25.87488609 -28.05237903 24.06595825 -26.23571134 22.25795537 C-23.62200675 19.65640423 -21.01156451 17.05161757 -18.40172696 14.44618779 C-17.18588925 13.23809201 -17.18588925 13.23809201 -15.94548917 12.00559026 C-15.18500272 11.24517934 -14.42451627 10.48476842 -13.64098477 9.70131475 C-12.9748013 9.03735189 -12.30861783 8.37338903 -11.62224698 7.68930608 C-9.59770814 5.67118433 -9.59770814 5.67118433 -8.07824063 3.05524236 C-5.34774613 0.29009842 -3.81696828 0.05446485 0 0 Z " fill="#1E1E1E" transform="translate(638.6986019611359,26.354593455791473)"/>
<path d="M0 0 C0.33 0.66 0.66 1.32 1 2 C-0.11936668 5.35810003 -0.8702657 5.89527814 -3.56929016 8.01191711 C-6.89396118 10.80322468 -9.2209645 13.59795097 -11.62638855 17.20524597 C-17.47169121 25.29366311 -23.78077524 32.16716348 -33.86496353 34.17703629 C-47.47804197 36.15288444 -61.44467096 35.4801441 -75.14981484 35.1292727 C-81.20306856 34.99686832 -87.25660259 34.98557317 -93.31108093 34.96073914 C-104.74470718 34.89578936 -116.17405367 34.7239255 -127.60580558 34.51239985 C-140.63324796 34.2766467 -153.66090851 34.1619586 -166.68995726 34.05679572 C-193.46233296 33.83802519 -220.23092542 33.46930547 -247 33 C-247 32.67 -247 32.34 -247 32 C-245.33352165 32.00333092 -245.33352165 32.00333092 -243.63337708 32.00672913 C-216.60037581 32.05893292 -189.56766114 32.06521412 -162.53463745 32.02334595 C-149.46162178 32.00416184 -136.38891919 31.99989836 -123.31591797 32.03076172 C-111.92142482 32.05762452 -100.52733722 32.05649063 -89.13285923 32.02174091 C-83.09943773 32.00431844 -77.06674274 32.0009135 -71.03335571 32.03103638 C-65.35310867 32.05895376 -59.67415042 32.04940572 -53.99397469 32.01126289 C-51.91068863 32.00385135 -49.82730207 32.01006633 -47.7441082 32.03101921 C-36.97476348 32.50116744 -36.97476348 32.50116744 -27.02033997 29.24009705 C-25.00356694 27.25801216 -23.50133602 25.38428693 -22 23 C-21.27167969 22.17628906 -20.54335938 21.35257813 -19.79296875 20.50390625 C-18.70841514 19.19241442 -17.62511254 17.87988719 -16.54296875 16.56640625 C-15 15 -15 15 -12 14 C-12 13.34 -12 12.68 -12 12 C-10.37128837 10.27257857 -8.71478955 8.63838804 -7 7 C-5.72653827 5.73180051 -4.45575297 4.46090847 -3.1875 3.1875 C-2.125 2.125 -1.0625 1.0625 0 0 Z " fill="#464646" transform="translate(477,642)"/>
<path d="M0 0 C9.85575809 0.37382601 19.71239221 0.55153026 29.57350993 0.71619916 C49.80499669 1.05826638 70.02374253 1.63602932 90.24430811 2.37687814 C89.91430811 3.03687814 89.58430811 3.69687814 89.24430811 4.37687814 C88.41916618 4.37503456 87.59402424 4.37319097 86.74387801 4.37129152 C66.67192501 4.32713438 46.59998037 4.29403223 26.52798903 4.2732538 C16.82135044 4.26293859 7.11474426 4.24887355 -2.59187353 4.22599924 C-11.05156378 4.20607288 -19.51123056 4.19316349 -27.97094363 4.18870115 C-32.45082465 4.1860925 -36.93063851 4.17995589 -41.41049802 4.16541803 C-45.62686406 4.15184606 -49.84313527 4.14765473 -54.05952108 4.15066278 C-55.60709369 4.15011245 -57.15466946 4.14613269 -58.70222318 4.13846719 C-60.81567748 4.12851189 -62.92877405 4.13091126 -65.04223669 4.13636911 C-66.22489708 4.13452552 -67.40755748 4.13268194 -68.62605608 4.13078249 C-74.94551744 4.62770676 -78.23742757 7.44268953 -82.50178564 11.86515939 C-83.03538198 12.40537225 -83.56897832 12.94558511 -84.11874425 13.50216806 C-85.81751357 15.2242488 -87.50578744 16.95616618 -89.19319189 18.68937814 C-90.87868425 20.41014095 -92.56636679 22.12866981 -94.25692785 23.84445322 C-95.30545777 24.90971473 -96.35087107 25.97805671 -97.39251745 27.05005014 C-100.67712488 30.40089314 -104.10866134 33.42319941 -107.75569189 36.37687814 C-108.41569189 36.04687814 -109.07569189 35.71687814 -109.75569189 35.37687814 C-85.53724225 -8.04070029 -43.3905976 -1.67580926 0 0 Z " fill="#4C4D4D" transform="translate(712.7556918859482,264.6231218576431)"/>
<path d="M0 0 C0.33 0.99 0.66 1.98 1 3 C-6 10 -13 17 -20 24 C-20.19314036 26.57095903 -20.26051156 29.03373948 -20.24050903 31.60549927 C-20.24221788 32.39941728 -20.24392673 33.19333528 -20.24568737 34.01131141 C-20.248996 36.68617936 -20.23795613 39.36079948 -20.22705078 42.03564453 C-20.22648696 43.94724522 -20.22680265 45.85884634 -20.22793579 47.77044678 C-20.22851145 52.97267942 -20.21672268 58.17482051 -20.20278788 63.3770318 C-20.190316 68.80895688 -20.18911282 74.24088386 -20.18673706 79.67282104 C-20.18051184 89.96465486 -20.16408698 100.25644637 -20.14403808 110.54826152 C-20.12171143 122.26271031 -20.1106938 133.97716108 -20.10064721 145.69162583 C-20.07972163 169.79444071 -20.04452547 193.89721799 -20 218 C-20.66 218.33 -21.32 218.66 -22 219 C-22.32757511 193.68702218 -22.57417937 168.37436366 -22.72537041 143.05969048 C-22.7974493 131.30453356 -22.89564897 119.55069633 -23.05615234 107.79638672 C-23.19604159 97.54681459 -23.28609564 87.29819842 -23.31723893 77.04769814 C-23.33543504 71.62346814 -23.37794415 66.20197197 -23.48022079 60.77862167 C-23.57588324 55.66413614 -23.60444276 50.55348572 -23.58350754 45.43819046 C-23.58733183 43.57006661 -23.61482172 41.70180295 -23.66887665 39.8344574 C-24.07597768 25.03408651 -24.07597768 25.03408651 -18.91702652 18.85458755 C-16.00971384 15.7907451 -12.87583913 13.0705045 -9.60817933 10.40054154 C-7.42298064 8.49748167 -5.73129139 6.31422778 -4 4 C-2.68505488 2.64852862 -1.35735142 1.30887458 0 0 Z " fill="#3D3D3D" transform="translate(343,318)"/>
<path d="M0 0 C0.33 0.99 0.66 1.98 1 3 C-3.11111111 8.55555556 -3.11111111 8.55555556 -6 10 C75.675 10.495 75.675 10.495 159 11 C159 11.33 159 11.66 159 12 C103.23 12 47.46 12 -10 12 C-10 10 -10 10 -7.8125 7.6875 C-6.884375 6.800625 -5.95625 5.91375 -5 5 C-4.071875 4.071875 -3.14375 3.14375 -2.1875 2.1875 C-1.1046875 1.1046875 -1.1046875 1.1046875 0 0 Z " fill="#1D1D1D" transform="translate(403,500)"/>
<path d="M0 0 C0.33 0 0.66 0 1 0 C1.00331015 0.92582823 1.00662029 1.85165646 1.01003075 2.80554008 C1.0909279 25.30495927 1.18321341 47.8043096 1.28752708 70.30363274 C1.33770657 81.18401551 1.38414877 92.06439055 1.421875 102.94482422 C1.45475621 112.42522127 1.49456577 121.90555919 1.54279006 131.38589108 C1.56809367 136.40834951 1.58986343 141.43076853 1.60334396 146.45327377 C1.61612941 151.17609378 1.63814537 155.89877887 1.66738319 160.62152481 C1.67648661 162.35900671 1.6821556 164.09651036 1.68421364 165.83401489 C1.68751678 168.19816332 1.7029405 170.56192464 1.7215271 172.92599487 C1.71959237 173.62053988 1.71765763 174.31508489 1.71566427 175.03067672 C1.66890535 178.95613638 1.66890535 178.95613638 4 182 C2.02 182.99 2.02 182.99 0 184 C0 123.28 0 62.56 0 0 Z " fill="#0B0C0C" transform="translate(591,82)"/>
<path d="M0 0 C0.99 0.33 1.98 0.66 3 1 C3 18.82 3 36.64 3 55 C2.34 55 1.68 55 1 55 C0.08536593 51.8844171 -0.12154961 49.10604372 -0.11352539 45.86425781 C-0.11344986 44.84350159 -0.11337433 43.82274536 -0.11329651 42.77105713 C-0.10813522 41.67613953 -0.10297394 40.58122192 -0.09765625 39.453125 C-0.0962413 38.3267865 -0.09482635 37.200448 -0.09336853 36.03997803 C-0.08777199 32.44329165 -0.0752201 28.84666756 -0.0625 25.25 C-0.05748455 22.81119882 -0.05292172 20.37239666 -0.04882812 17.93359375 C-0.0378037 11.95570792 -0.02106898 5.97785841 0 0 Z " fill="#0C0C0C" transform="translate(486,266)"/>
<path d="M0 0 C0.495 1.485 0.495 1.485 1 3 C-18.14 22.14 -37.28 41.28 -57 61 C-57.66 60.67 -58.32 60.34 -59 60 C-58.08251732 59.08584824 -58.08251732 59.08584824 -57.14649963 58.15322876 C-51.390305 52.41704864 -45.63650231 46.6784824 -39.88539219 40.93720436 C-36.92841593 37.98545274 -33.97051413 35.03464103 -31.01049805 32.0859375 C-28.15541428 29.24169744 -25.30276087 26.39504087 -22.45179558 23.54667282 C-21.36218906 22.45891786 -20.27170096 21.37204526 -19.18033028 20.28606033 C-17.65508672 18.76804684 -16.13297202 17.24696212 -14.61157227 15.72509766 C-13.74331314 14.85905914 -12.87505402 13.99302063 -11.98048401 13.10073853 C-9.95954528 11.1592151 -9.95954528 11.1592151 -9 9 C-8.34 9 -7.68 9 -7 9 C-6.773125 8.443125 -6.54625 7.88625 -6.3125 7.3125 C-4.64103234 4.36753316 -2.44723648 2.31843456 0 0 Z " fill="#20201F" transform="translate(735,381)"/>
<path d="M0 0 C0 3.95069493 -1.24168401 4.72031194 -3.89819336 7.57958984 C-4.72358612 8.46926453 -5.54897888 9.35893921 -6.39938354 10.27557373 C-10.4180737 14.48558517 -14.50069017 18.62406387 -18.62890625 22.7265625 C-19.50401352 23.60025482 -20.37912079 24.47394714 -21.28074646 25.37411499 C-24.03896369 28.1267957 -26.80066137 30.87595325 -29.5625 33.625 C-31.44908713 35.5059904 -33.33486967 37.38778499 -35.22070312 39.26953125 C-39.8111435 43.84902698 -44.40443606 48.42564613 -49 53 C-49.66 52.67 -50.32 52.34 -51 52 C-49.91900024 50.92685547 -49.91900024 50.92685547 -48.81616211 49.83203125 C-46.10927088 47.14342116 -43.40583901 44.45135438 -40.70336914 41.75830078 C-39.53957726 40.59949681 -38.37488451 39.44159678 -37.20922852 38.28466797 C-28.55710655 29.71604936 -28.55710655 29.71604936 -20.43041992 20.65307617 C-17.79148462 17.60336958 -14.88111853 14.81848552 -12 12 C-11.175 11.175 -10.35 10.35 -9.5 9.5 C-6.33333333 6.33333333 -3.16666667 3.16666667 0 0 Z " fill="#E0E0DF" transform="translate(518,556)"/>
<path d="M0 0 C0.33 0.99 0.66 1.98 1 3 C-3.11111111 8.55555556 -3.11111111 8.55555556 -6 10 C14.46 10.33 34.92 10.66 56 11 C56 11.33 56 11.66 56 12 C34.22 12 12.44 12 -10 12 C-10 10 -10 10 -7.8125 7.6875 C-6.884375 6.800625 -5.95625 5.91375 -5 5 C-4.071875 4.071875 -3.14375 3.14375 -2.1875 2.1875 C-1.1046875 1.1046875 -1.1046875 1.1046875 0 0 Z " fill="#1F1F1F" transform="translate(403,500)"/>
<path d="M0 0 C0.495 1.485 0.495 1.485 1 3 C-12.86 16.86 -26.72 30.72 -41 45 C-41.66 44.67 -42.32 44.34 -43 44 C-42.52028748 43.52250809 -42.04057495 43.04501617 -41.54632568 42.55305481 C-36.54688714 37.5757668 -31.55099349 32.59494092 -26.55712891 27.61206055 C-24.69377571 25.75373117 -22.82952531 23.89630096 -20.96435547 22.03979492 C-18.28115353 19.36874387 -15.60121132 16.69445922 -12.921875 14.01953125 C-12.08944275 13.19226028 -11.2570105 12.36498932 -10.39935303 11.51264954 C-6.70938867 7.82304226 -3.1252664 4.19541093 0 0 Z " fill="#20201E" transform="translate(649,468)"/>
<path d="M0 0 C4 1 4 1 4 1 Z M-5 3 C-4.01 3.33 -3.02 3.66 -2 4 C-5.30481942 7.32969934 -8.61303259 10.65597725 -11.92431641 13.97924805 C-13.04828273 15.10821623 -14.17134658 16.23808368 -15.29345703 17.36889648 C-16.91457481 19.0022627 -18.53900416 20.6322741 -20.1640625 22.26171875 C-20.65806549 22.76088303 -21.15206848 23.2600473 -21.66104126 23.77433777 C-24.95692773 27.07074282 -28.38711549 30.06423847 -32 33 C-32.66 32.67 -33.32 32.34 -34 32 C-24.43 22.43 -14.86 12.86 -5 3 Z " fill="#313131" transform="translate(637,268)"/>
<path d="M0 0 C0.495 1.485 0.495 1.485 1 3 C-10.22 14.22 -21.44 25.44 -33 37 C-33 34 -33 34 -31.73413086 32.40942383 C-30.85833374 31.5667395 -30.85833374 31.5667395 -29.96484375 30.70703125 C-29.32385742 30.08086914 -28.68287109 29.45470703 -28.02246094 28.80957031 C-27.33442383 28.15053711 -26.64638672 27.49150391 -25.9375 26.8125 C-24.54374744 25.45108509 -23.15179344 24.08782625 -21.76171875 22.72265625 C-21.09962402 22.07312988 -20.4375293 21.42360352 -19.75537109 20.75439453 C-17.27900238 18.27940349 -15.01628111 15.6590789 -12.76171875 12.984375 C-8.73379729 8.44738143 -4.32345075 4.25308718 0 0 Z " fill="#2B2B2B" transform="translate(423,238)"/>
<path d="M0 0 C0 3 0 3 -1.21484375 4.5756073 C-1.78332031 5.13742203 -2.35179687 5.69923676 -2.9375 6.27807617 C-3.89849609 7.23873238 -3.89849609 7.23873238 -4.87890625 8.21879578 C-5.57886719 8.90327286 -6.27882812 9.58774994 -7 10.29296875 C-7.71027344 10.99899734 -8.42054687 11.70502594 -9.15234375 12.43244934 C-11.42796996 14.69125019 -13.71379365 16.93941307 -16 19.1875 C-17.54234842 20.71480664 -19.08402406 22.242793 -20.625 23.77148438 C-24.40888829 27.52225221 -28.20120662 31.26433217 -32 35 C-31.67 35.66 -31.34 36.32 -31 37 C-33.64 37.99 -36.28 38.98 -39 40 C-37.67496118 36.98190091 -36.37311685 35.23795178 -33.8125 33.18359375 C-26.80101989 27.2482427 -20.46962855 20.57385285 -14 14.0625 C-12.63955682 12.69703255 -11.27888169 11.33179614 -9.91796875 9.96679688 C-6.6092969 6.64719114 -3.30378678 3.32446727 0 0 Z " fill="#272726" transform="translate(127,777)"/>
<path d="M0 0 C0.33 0.66 0.66 1.32 1 2 C-0.09554821 5.28664464 -0.77938148 5.88271647 -3.375 8.00390625 C-8.88496512 12.67876728 -13.91725319 17.80857808 -19 22.9375 C-19.97502386 23.9175531 -20.9502828 24.8973724 -21.92578125 25.87695312 C-24.28616618 28.24902313 -26.64416905 30.6234086 -29 33 C-29.66 32.67 -30.32 32.34 -31 32 C-30.43152344 31.443125 -29.86304688 30.88625 -29.27734375 30.3125 C-24.79359891 25.88115284 -20.51043884 21.40401251 -16.5078125 16.53125 C-15 15 -15 15 -12 14 C-12 13.34 -12 12.68 -12 12 C-10.37128837 10.27257857 -8.71478955 8.63838804 -7 7 C-5.72653827 5.73180051 -4.45575297 4.46090847 -3.1875 3.1875 C-2.125 2.125 -1.0625 1.0625 0 0 Z " fill="#2B2B2A" transform="translate(477,642)"/>
<path d="M0 0 C0.33 0.99 0.66 1.98 1 3 C-1.45023758 5.50804718 -3.91147598 8.0050076 -6.375 10.5 C-7.07367188 11.21542969 -7.77234375 11.93085937 -8.4921875 12.66796875 C-9.1625 13.34472656 -9.8328125 14.02148438 -10.5234375 14.71875 C-11.14138184 15.34716797 -11.75932617 15.97558594 -12.39599609 16.62304688 C-14 18 -14 18 -16 18 C-16.226875 18.556875 -16.45375 19.11375 -16.6875 19.6875 C-18.35896766 22.63246684 -20.55276352 24.68156544 -23 27 C-23.99 26.67 -24.98 26.34 -26 26 C-17.33333333 17.33333333 -8.66666667 8.66666667 0 0 Z " fill="#2E2E2D" transform="translate(164,740)"/>
<path d="M0 0 C0.33 0.99 0.66 1.98 1 3 C-1.47626602 6.52680311 -3.44537339 8.63779487 -7.0625 11 C-10.41427606 13.2820603 -11.81784044 15.62117229 -14 19 C-16.97252424 21.74958492 -19.08202032 23.16161876 -23 24 C-18.32533663 18.37696243 -13.32234333 13.20258446 -8.125 8.0625 C-7.34125 7.28326172 -6.5575 6.50402344 -5.75 5.70117188 C-3.83561419 3.79845915 -1.91891966 1.89813829 0 0 Z " fill="#3C3C3C" transform="translate(851,52)"/>
<path d="M0 0 C0.99 0 1.98 0 3 0 C3.33 6.6 3.66 13.2 4 20 C2.68 20.33 1.36 20.66 0 21 C0 14.07 0 7.14 0 0 Z " fill="#1B1B1B" transform="translate(887,0)"/>
<path d="M0 0 C0.33 0 0.66 0 1 0 C1.00808685 0.63449066 1.01617371 1.26898132 1.02450562 1.92269897 C1.11036183 8.50857064 1.20985639 15.09413471 1.31738281 21.6796875 C1.35573762 24.13959602 1.39057884 26.59956187 1.421875 29.05957031 C1.46738451 32.58940163 1.52540198 36.11883595 1.5859375 39.6484375 C1.59748871 40.75367767 1.60903992 41.85891785 1.62094116 42.99765015 C1.64081085 44.01855743 1.66068054 45.03946472 1.68115234 46.09130859 C1.69447601 46.99287689 1.70779968 47.89444519 1.7215271 48.82333374 C1.80120842 51.20898001 1.80120842 51.20898001 4 53 C2.68 53.66 1.36 54.32 0 55 C0 36.85 0 18.7 0 0 Z " fill="#1C1C1C" transform="translate(591,211)"/>
<path d="M0 0 C0 3.69475245 -1.21104494 4.57943928 -3.70904541 7.12588501 C-4.24334167 7.65410858 -4.77763794 8.18233215 -5.328125 8.7265625 C-6.14624664 9.54898941 -6.14624664 9.54898941 -6.980896 10.38803101 C-8.13738359 11.54656128 -9.29767314 12.70130679 -10.46142578 13.85253906 C-12.23957079 15.61466475 -14.00120961 17.39214956 -15.76171875 19.171875 C-16.88706047 20.29523372 -18.01333275 21.41766116 -19.140625 22.5390625 C-19.66682434 23.07133453 -20.19302368 23.60360657 -20.73516846 24.15200806 C-25.31139544 28.64172251 -25.31139544 28.64172251 -29 29 C-26.28407892 25.52022612 -23.56294494 22.53698804 -20.1875 19.6875 C-17.18860968 17.13872455 -14.57332387 14.47777556 -12 11.5 C-8.32261238 7.24619646 -4.32810919 3.57989882 0 0 Z " fill="#1A1B1A" transform="translate(194,711)"/>
<path d="M0 0 C0 3 0 3 -2.38671875 5.72729492 C-3.47931119 6.81941176 -4.5801754 7.90329204 -5.6875 8.98046875 C-6.26459717 9.55332108 -6.84169434 10.1261734 -7.4362793 10.71638489 C-9.28394376 12.54723565 -11.14175807 14.36739185 -13 16.1875 C-14.25328593 17.42574262 -15.50589901 18.66466668 -16.7578125 19.90429688 C-19.83078528 22.94416468 -22.91290242 25.97448016 -26 29 C-26.66 28.67 -27.32 28.34 -28 28 C-18.66666667 18.66666667 -9.33333333 9.33333333 0 0 Z " fill="#E6E6E5" transform="translate(596,478)"/>
<path d="M0 0 C0.66 0.33 1.32 0.66 2 1 C-6.25 9.25 -14.5 17.5 -23 26 C-23 23 -23 23 -21.47119141 21.14648438 C-20.77171387 20.46908203 -20.07223633 19.79167969 -19.3515625 19.09375 C-18.59359375 18.34996094 -17.835625 17.60617187 -17.0546875 16.83984375 C-16.25289063 16.06769531 -15.45109375 15.29554688 -14.625 14.5 C-13.05254978 12.97094532 -11.48214602 11.43978252 -9.9140625 9.90625 C-9.2123291 9.22884766 -8.5105957 8.55144531 -7.78759766 7.85351562 C-5.82090872 5.92455899 -5.82090872 5.92455899 -4 3 C-3.34 3 -2.68 3 -2 3 C-2 2.34 -2 1.68 -2 1 C-1.34 0.67 -0.68 0.34 0 0 Z " fill="#1C1C1C" transform="translate(359,545)"/>
<path d="M0 0 C1.32 0.33 2.64 0.66 4 1 C-0.62 5.62 -5.24 10.24 -10 15 C-10.33 13.68 -10.66 12.36 -11 11 C-9.33067656 8.81935226 -7.76989401 7.07139986 -5.8125 5.1875 C-5.31685547 4.67251953 -4.82121094 4.15753906 -4.31054688 3.62695312 C-2.83203125 2.16796875 -2.83203125 2.16796875 0 0 Z " fill="#151515" transform="translate(571,40)"/>
<path d="M0 0 C0.33 0.99 0.66 1.98 1 3 C-9.44921875 13.44921875 -9.44921875 13.44921875 -11.28662109 15.28271484 C-12.79031779 16.78983975 -14.28100891 18.30991743 -15.76953125 19.83203125 C-18 22 -18 22 -21 24 C-19.41586862 20.03967155 -16.64769794 17.45394922 -13.625 14.5625 C-10.15456154 11.21733138 -6.96617576 7.80810338 -4 4 C-2.68505488 2.64852862 -1.35735142 1.30887458 0 0 Z " fill="#232323" transform="translate(343,318)"/>
<path d="M0 0 C0.66 0.33 1.32 0.66 2 1 C-0.73767123 3.82473024 -3.4921069 6.63252092 -6.25 9.4375 C-7.02730469 10.23994141 -7.80460937 11.04238281 -8.60546875 11.86914062 C-9.73662109 13.01479492 -9.73662109 13.01479492 -10.890625 14.18359375 C-11.58188477 14.89056396 -12.27314453 15.59753418 -12.98535156 16.32592773 C-15.05471985 18.04546946 -16.3704323 18.60556484 -19 19 C-17.38405168 16.95880212 -15.7143618 14.95927063 -14 13 C-13.34 13 -12.68 13 -12 13 C-11.77570313 12.43796875 -11.55140625 11.8759375 -11.3203125 11.296875 C-9.61328077 8.32724583 -7.45193456 6.49655833 -4.875 4.25 C-3.96492188 3.45078125 -3.05484375 2.6515625 -2.1171875 1.828125 C-1.41851562 1.22484375 -0.71984375 0.6215625 0 0 Z " fill="#E8E8E7" transform="translate(108,751)"/>
<path d="M0 0 C0.33 0 0.66 0 1 0 C1.86100541 6.96752071 2.63623697 14.08512027 1 21 C0.34 21.33 -0.32 21.66 -1 22 C-1.02887814 18.52085059 -1.04675687 15.04173169 -1.0625 11.5625 C-1.07087891 10.56927734 -1.07925781 9.57605469 -1.08789062 8.55273438 C-1.09111328 7.60849609 -1.09433594 6.66425781 -1.09765625 5.69140625 C-1.10289307 4.81685791 -1.10812988 3.94230957 -1.11352539 3.04125977 C-1 1 -1 1 0 0 Z " fill="#080808" transform="translate(286,400)"/>
<path d="M0 0 C0 3.7185142 -0.85912168 4.31804606 -3.3125 7 C-3.92738281 7.680625 -4.54226563 8.36125 -5.17578125 9.0625 C-6.75544728 10.74026092 -8.35810926 12.38336911 -10 14 C-10.99 13.67 -11.98 13.34 -13 13 C-8.71 8.71 -4.42 4.42 0 0 Z " fill="#2F2F2E" transform="translate(749,367)"/>
<path d="M0 0 C0.33 0.99 0.66 1.98 1 3 C-2.63 6.63 -6.26 10.26 -10 14 C-10.66 13.67 -11.32 13.34 -12 13 C-10.625 11 -10.625 11 -9 9 C-8.34 9 -7.68 9 -7 9 C-6.773125 8.443125 -6.54625 7.88625 -6.3125 7.3125 C-4.64103234 4.36753316 -2.44723648 2.31843456 0 0 Z " fill="#2C2C2B" transform="translate(735,381)"/>
<path d="M0 0 C0.99 0.33 1.98 0.66 3 1 C2.06725891 2.12894876 1.12859878 3.25300876 0.1875 4.375 C-0.33457031 5.00148438 -0.85664062 5.62796875 -1.39453125 6.2734375 C-3 8 -3 8 -6 10 C-6.33 9.01 -6.66 8.02 -7 7 C-4.69 4.69 -2.38 2.38 0 0 Z " fill="#121312" transform="translate(549,62)"/>
<path d="M0 0 C0.33 0.66 0.66 1.32 1 2 C-0.07507629 3.29854721 -1.16043736 4.58858361 -2.25 5.875 C-2.85328125 6.59429688 -3.4565625 7.31359375 -4.078125 8.0546875 C-5.97087634 9.97052118 -7.53657727 10.96449045 -10 12 C-10 12.66 -10 13.32 -10 14 C-10.66 13.67 -11.32 13.34 -12 13 C-8.13635705 8.51282966 -4.25209792 4.12324647 0 0 Z " fill="#2E2E2C" transform="translate(587,531)"/>
<path d="M0 0 C0.33 0.99 0.66 1.98 1 3 C-0.61083037 5.14777382 -2.18026704 7.05256648 -4 9 C-4.53625 9.61875 -5.0725 10.2375 -5.625 10.875 C-7 12 -7 12 -10 12 C-10 10 -10 10 -7.8125 7.6875 C-6.884375 6.800625 -5.95625 5.91375 -5 5 C-4.071875 4.071875 -3.14375 3.14375 -2.1875 2.1875 C-1.1046875 1.1046875 -1.1046875 1.1046875 0 0 Z " fill="#333331" transform="translate(403,500)"/>
<path d="M0 0 C0.33 0.99 0.66 1.98 1 3 C-1.89380576 7.17048478 -3.98990293 9.56854369 -9 11 C-7.59155282 7.78475695 -5.89655214 5.67816132 -3.375 3.25 C-2.74335937 2.63640625 -2.11171875 2.0228125 -1.4609375 1.390625 C-0.73777344 0.70226563 -0.73777344 0.70226563 0 0 Z " fill="#303030" transform="translate(851,52)"/>
<path d="M0 0 C0.66 0 1.32 0 2 0 C-0.89066059 9.59453303 -0.89066059 9.59453303 -4 13 C-4.33 11.02 -4.66 9.04 -5 7 C-4.0409375 6.6596875 -4.0409375 6.6596875 -3.0625 6.3125 C-0.72806339 5.14749104 -0.72806339 5.14749104 -0.25 2.375 C-0.1675 1.59125 -0.085 0.8075 0 0 Z " fill="#2D2E2C" transform="translate(66,692)"/>
<path d="M0 0 C0.99 0.66 1.98 1.32 3 2 C0.36 4.64 -2.28 7.28 -5 10 C-5.33 8.68 -5.66 7.36 -6 6 C-3.625 3.3125 -3.625 3.3125 -1 1 C-0.67 0.67 -0.34 0.34 0 0 Z " fill="#212222" transform="translate(771,83)"/>
<path d="M0 0 C0.33 0.99 0.66 1.98 1 3 C-0.07356677 4.15498897 -1.15929788 5.29867867 -2.25 6.4375 C-2.85328125 7.07558594 -3.4565625 7.71367188 -4.078125 8.37109375 C-6.10048016 10.08516306 -7.41270605 10.59358878 -10 11 C-7.22169429 7.3984926 -4.2594334 4.17134061 -1 1 C-0.67 0.67 -0.34 0.34 0 0 Z " fill="#333333" transform="translate(164,740)"/>
<path d="M0 0 C0 3.74016583 -0.9341591 4.45276193 -3.375 7.1875 C-4.00148438 7.90292969 -4.62796875 8.61835937 -5.2734375 9.35546875 C-7 11 -7 11 -9 11 C-7.59155282 7.78475695 -5.89655214 5.67816132 -3.375 3.25 C-2.74335937 2.63640625 -2.11171875 2.0228125 -1.4609375 1.390625 C-0.73777344 0.70226562 -0.73777344 0.70226562 0 0 Z " fill="#C8C8C7" transform="translate(518,556)"/>
<path d="M0 0 C-0.33 0.33 -0.66 0.66 -1 1 C-0.34 1.66 0.32 2.32 1 3 C-2.96 3 -6.92 3 -11 3 C-3.71428571 -1.85714286 -3.71428571 -1.85714286 0 0 Z " fill="#626363" transform="translate(207,833)"/>
<path d="M0 0 C1.13643966 3.40931897 0.86747764 4.00335456 -0.4375 7.1875 C-0.72496094 7.90292969 -1.01242188 8.61835937 -1.30859375 9.35546875 C-1.53675781 9.89816406 -1.76492187 10.44085937 -2 11 C-3.61949011 8.42786866 -4.04408751 7.32330841 -3.625 4.25 C-3.41875 3.5075 -3.2125 2.765 -3 2 C-2.01 2 -1.02 2 0 2 C0 1.34 0 0.68 0 0 Z " fill="#171716" transform="translate(76,665)"/>
<path d="M0 0 C-1.34603482 4.03810445 -3.65336723 5.47295076 -7 8 C-7.66 8 -8.32 8 -9 8 C-7.50345469 3.51036406 -4.94314084 0 0 0 Z " fill="#323331" transform="translate(204,703)"/>
<path d="M0 0 C0.99 0.33 1.98 0.66 3 1 C0.69 3.31 -1.62 5.62 -4 8 C-6 5 -6 5 -6 3 C-4.68 3.33 -3.36 3.66 -2 4 C-2 3.34 -2 2.68 -2 2 C-1.34 2 -0.68 2 0 2 C0 1.34 0 0.68 0 0 Z " fill="#D8D8D6" transform="translate(452,665)"/>
<path d="M0 0 C1.32 0.66 2.64 1.32 4 2 C1.03 4.475 1.03 4.475 -2 7 C-2.6875 5.1875 -2.6875 5.1875 -3 3 C-1.5625 1.25 -1.5625 1.25 0 0 Z " fill="#222323" transform="translate(711,356)"/>
<path d="M0 0 C0.99 0.33 1.98 0.66 3 1 C1.63016497 4.16115776 1.0109362 4.9927092 -2 7 C-2.6875 5.1875 -2.6875 5.1875 -3 3 C-1.5625 1.25 -1.5625 1.25 0 0 Z " fill="#1D1E1E" transform="translate(463,148)"/>
<path d="M0 0 C0 1.32 0 2.64 0 4 C-0.99 4.33 -1.98 4.66 -3 5 C-3 4.34 -3 3.68 -3 3 C-5.64 3.33 -8.28 3.66 -11 4 C-7.61125486 1.74083657 -4.15175481 0 0 0 Z " fill="#CACACA" transform="translate(158,791)"/>
<path d="M0 0 C0.33 0.66 0.66 1.32 1 2 C0.09515208 3.15518918 -0.8244206 4.29885406 -1.75 5.4375 C-2.26046875 6.07558594 -2.7709375 6.71367188 -3.296875 7.37109375 C-5.19667629 9.18810554 -6.43586908 9.60423197 -9 10 C-7.38405168 7.95880212 -5.7143618 5.95927063 -4 4 C-3.34 4 -2.68 4 -2 4 C-1.34 2.68 -0.68 1.36 0 0 Z " fill="#CACAC9" transform="translate(98,760)"/>
<path d="M0 0 C0 2.62113708 -0.31292445 4.50935112 -1 7 C-2.98 7.33 -4.96 7.66 -7 8 C-6.02133662 6.85373678 -5.04205413 5.70800212 -4.0625 4.5625 C-3.51722656 3.92441406 -2.97195313 3.28632812 -2.41015625 2.62890625 C-1.63204305 1.73008851 -0.84063472 0.84063472 0 0 Z " fill="#CBCBCA" transform="translate(526,548)"/>
<path d="M0 0 C1.32 0.66 2.64 1.32 4 2 C1.03 4.475 1.03 4.475 -2 7 C-2.125 4.625 -2.125 4.625 -2 2 C-1.34 1.34 -0.68 0.68 0 0 Z " fill="#1B1B1B" transform="translate(746,107)"/>
<path d="M0 0 C2 1.375 2 1.375 4 3 C4 3.66 4 4.32 4 5 C2.02 5.33 0.04 5.66 -2 6 C-2 5.01 -2 4.02 -2 3 C-1.34 3 -0.68 3 0 3 C0 2.01 0 1.02 0 0 Z " fill="#D2D2D1" transform="translate(309,764)"/>
<path d="M0 0 C0.99 0.66 1.98 1.32 3 2 C-0.465 4.97 -0.465 4.97 -4 8 C-3.07377893 4.29511572 -2.32789515 2.83395931 0 0 Z " fill="#212221" transform="translate(821,33)"/>
<path d="M0 0 C2.31 1.98 4.62 3.96 7 6 C6.01 6.33 5.02 6.66 4 7 C4 6.34 4 5.68 4 5 C2.68 5 1.36 5 0 5 C0 3.35 0 1.7 0 0 Z " fill="#252524" transform="translate(149,650)"/>
<path d="M0 0 C1.32 0.66 2.64 1.32 4 2 C2.35 3.32 0.7 4.64 -1 6 C-1 5.34 -1 4.68 -1 4 C-1.66 3.67 -2.32 3.34 -3 3 C-2.01 2.01 -1.02 1.02 0 0 Z " fill="#191919" transform="translate(415,196)"/>
<path d="M0 0 C0.99 0.33 1.98 0.66 3 1 C-0.465 3.97 -0.465 3.97 -4 7 C-3.04065919 3.16263678 -2.76390737 2.40339772 0 0 Z " fill="#252525" transform="translate(153,751)"/>
<path d="M0 0 C0.99 0.33 1.98 0.66 3 1 C-0.465 3.97 -0.465 3.97 -4 7 C-3.6875 4.625 -3.6875 4.625 -3 2 C-2.01 1.34 -1.02 0.68 0 0 Z " fill="#272827" transform="translate(119,737)"/>
<path d="M0 0 C0 3.90838866 -1.50567876 5.11594107 -4 8 C-4.99 7.67 -5.98 7.34 -7 7 C-4.69 4.69 -2.38 2.38 0 0 Z " fill="#393936" transform="translate(595,523)"/>
<path d="M0 0 C0.33 1.32 0.66 2.64 1 4 C-0.65 5.32 -2.3 6.64 -4 8 C-4.66 7.34 -5.32 6.68 -6 6 C-4.02 4.02 -2.04 2.04 0 0 Z " fill="#2E2F2E" transform="translate(684,219)"/>
<path d="M0 0 C0.33 0.99 0.66 1.98 1 3 C-0.32 4.32 -1.64 5.64 -3 7 C-3.99 6.67 -4.98 6.34 -6 6 C-4.02 4.02 -2.04 2.04 0 0 Z " fill="#363635" transform="translate(496,623)"/>
<path d="M0 0 C1.25541557 3.76624671 0.37061958 5.37188934 -1 9 C-1.33 8.01 -1.66 7.02 -2 6 C-2.66 5.67 -3.32 5.34 -4 5 C-3.67 4.01 -3.34 3.02 -3 2 C-2.01 2 -1.02 2 0 2 C0 1.34 0 0.68 0 0 Z " fill="#212120" transform="translate(111,573)"/>
<path d="M0 0 C2.1875 0.3125 2.1875 0.3125 4 1 C2.35 2.32 0.7 3.64 -1 5 C-1.66 4.34 -2.32 3.68 -3 3 C-1.75 1.4375 -1.75 1.4375 0 0 Z " fill="#0B0B0B" transform="translate(741,326)"/>
<path d="M0 0 C0.33 0 0.66 0 1 0 C1 2.64 1 5.28 1 8 C0.01 8.495 0.01 8.495 -1 9 C-1.625 6.1875 -1.625 6.1875 -2 3 C-1.34 2.01 -0.68 1.02 0 0 Z " fill="#090909" transform="translate(354,313)"/>
</svg>
